<?xml version="1.0" standalone="no"?>
<!DOCTYPE svg PUBLIC "-//W3C//DTD SVG 1.1//EN" "http://www.w3.org/Graphics/SVG/1.1/DTD/svg11.dtd" >
<!--
2013-9-30: Created.
-->
<svg>
<metadata>
Created by iconfont
</metadata>
<defs>

<font id="iconfont" horiz-adv-x="1024" >
  <font-face
    font-family="iconfont"
    font-weight="500"
    font-stretch="normal"
    units-per-em="1024"
    ascent="896"
    descent="-128"
  />
    <missing-glyph />
    
    <glyph glyph-name="ziyuan2" unicode="&#58983;" d="M1024 896v-1024H0"  horiz-adv-x="1024" />

    
    <glyph glyph-name="fangjian1" unicode="&#58976;" d="M136.757033 790.115009L553.373996 894.838a36.425997 36.425997 0 0 0 45.530996-36.424997v-949.339916a36.425997 36.425997 0 0 0-43.254996-36.425997l-416.616963 77.404993a59.190995 59.190995 0 0 0-47.807996 56.914995V733.200014a59.190995 59.190995 0 0 0 45.531996 56.914995z m560.041951-828.679927h168.467985a66.020994 66.020994 0 0 1 66.020994 66.019994V742.307014a66.020994 66.020994 0 0 1-66.020994 66.021994H696.798984zM448.650006 462.285038c-25.041998 0-47.807996-34.148997-47.807996-77.403993s20.489998-77.403993 47.807996-77.403993 47.808996 34.148997 47.808995 77.403993-22.765998 77.403993-47.808995 77.403993z"  horiz-adv-x="1024" />

    
    <glyph glyph-name="lianjie" unicode="&#59177;" d="M551.272304 186.715228c-65.895341-0.126952-132.045586 25.731371-181.723996 75.535733l-7.981013 7.939029L474.507031 383.131725l7.898044-7.897045c19.445723-19.403739 43.987539-28.702259 68.867229-28.787227 26.070244 0.084968 50.867964 9.469456 70.313687 28.787227l185.035756 185.120725c19.445723 19.488707 28.788227 44.157475 28.874195 69.718909-0.085968 25.390498-9.428472 50.016283-28.788227 69.50499l-7.897045 7.812077c-19.361754 19.404738-44.073507 28.788227-69.547974 28.872195-25.476466-0.083969-50.188219-9.468457-69.547974-28.872195l-76.172494-76.086527c-31.164338-31.208321-81.774398-31.208321-113.024704 0-31.080369 31.122353-31.080369 81.733414 0 112.855767l76.171495 76.172495C596.875238 870.604304 663.450324 896.07977 729.263696 895.993802c65.727404 0.085968 132.218521-25.389499 182.490708-75.660686l7.813077-7.814076c50.18422-50.186219 75.744655-116.592369 75.660686-182.445725 0.083969-65.727404-25.30653-132.346473-75.660686-182.617661L734.441758 262.336929c-50.440124-50.61306-117.270115-75.621701-182.744613-75.621701h-0.424841zM294.141527-127.992003c-65.981309-0.085968-132.047585 25.729372-181.808964 75.533734l-7.898044 7.940029c-50.356156 50.314171-75.746654 116.934241-75.660687 182.786597-0.085968 65.813371 25.475467 132.177537 75.660687 182.236804l185.122723 185.120724c50.18522 50.272187 116.676338 75.746654 182.573678 75.660687 51.545711 0 103.600231-15.539185 147.843674-46.535586a80.59584 80.59584 0 0 0 20.295405-14.774471l14.351629-14.35063 7.895046-7.812076h-0.083969 0.083969L549.575938 384.873073l-7.897044 7.812077c-19.445723 19.404738-44.073507 28.787227-69.548974 28.872195-25.475467-0.083969-50.186219-9.467457-69.632942-28.872195L217.290286 207.562426c-19.276786-19.403739-28.702259-44.072507-28.787227-69.293069 0.084968-25.643404 9.511441-50.441124 28.787227-69.843863l7.897045-7.897045c19.531691-19.404738 44.072507-28.704258 68.953196-28.787227 26.070244 0.082969 50.950933 9.468457 70.311688 28.787227l79.73916 79.823129c31.250306 31.123353 81.69143 31.123353 112.941735-0.083969 31.164338-31.123353 31.164338-81.650445 0-112.899751l-79.73816-79.824128c-50.526092-50.524093-117.357083-75.533734-182.829582-75.533734h-0.423841z"  horiz-adv-x="1024" />

    
    <glyph glyph-name="duankailianjie" unicode="&#59621;" d="M829.952 18.8416l-67.584 67.584c-13.312 13.312-13.312 34.9184 0 48.2304s34.9184 13.312 48.2304 0l67.584-67.584c13.312-13.312 13.312-34.9184 0-48.2304s-34.9184-13.312-48.2304 0zM948.6336 278.528H852.992c-18.8416 0-34.0992-15.2576-34.0992-34.0992s15.2576-34.0992 34.0992-34.0992h95.6416c18.8416 0 34.0992 15.2576 34.0992 34.0992S967.4752 278.528 948.6336 278.528zM618.496-51.6096V44.032c0 18.8416 15.2576 34.0992 34.0992 34.0992s34.0992-15.2576 34.0992-34.0992v-95.6416c0-18.8416-15.2576-34.0992-34.0992-34.0992S618.496-70.4512 618.496-51.6096zM193.4336 750.4896l67.584-67.584c13.312-13.312 13.312-34.9184 0-48.2304s-34.9184-13.312-48.2304 0l-67.584 67.584c-13.312 13.312-13.312 34.9184 0 48.2304s34.9184 13.312 48.2304 0zM74.752 490.8032h95.6416c18.8416 0 34.0992 15.2576 34.0992 34.0992s-15.2576 34.0992-34.0992 34.0992H74.752c-18.8416 0-34.0992-15.2576-34.0992-34.0992s15.2576-34.0992 34.0992-34.0992zM404.8896 820.9408v-95.6416c0-18.8416-15.2576-34.0992-34.0992-34.0992s-34.0992 15.2576-34.0992 34.0992V820.9408c0 18.8416 15.2576 34.0992 34.0992 34.0992s34.0992-15.2576 34.0992-34.0992zM514.3552 302.3872l-101.5808-101.5808c-23.9616-23.9616-62.8736-23.9616-86.9376 0-23.9616 23.9616-23.9616 62.8736 0 86.9376l101.5808 101.5808-49.2544 49.2544c-19.968 19.968-52.4288 19.968-72.3968 0L52.3264 185.0368c-19.968-19.968-19.968-52.4288 0-72.3968L240.64-75.6736c19.968-19.968 52.4288-19.968 72.3968 0l253.44 253.44c19.968 19.968 19.968 52.4288 0 72.3968l-52.1216 52.224zM971.6736 655.36L783.36 843.6736c-19.968 19.968-52.4288 19.968-72.3968 0L457.5232 590.2336c-19.968-19.968-19.968-52.4288 0-72.3968l49.2544-49.2544 101.5808 101.5808c23.9616 23.9616 62.8736 23.9616 86.9376 0 23.9616-23.9616 23.9616-62.8736 0-86.9376l-101.5808-101.5808 52.1216-52.1216c19.968-19.968 52.4288-19.968 72.3968 0l253.44 253.44c19.968 19.968 19.968 52.4288 0 72.3968z"  horiz-adv-x="1024" />

    
    <glyph glyph-name="quxiaofenpei" unicode="&#58955;" d="M857.02389 262.893415v119.763089c-0.511808 17.401474-15.354242 30.708484-32.755717 30.196676h-285.077096V505.490441h66.53505c30.708484-2.55904 60.905161 7.165313 84.96014 26.102212 20.472323 20.984131 30.708484 49.133575 28.149444 78.306635V791.079345c2.55904 28.661252-8.188929 57.322504-28.149444 78.306635-23.543171 19.448707-54.251656 28.661252-84.96014 26.102212H408.680019c-30.708484 2.55904-60.905161-7.165313-84.96014-26.102212-20.472323-20.984131-30.708484-49.133575-28.661252-78.306635v-181.180057c-2.047232-28.661252 8.188929-57.322504 28.661252-78.306635 24.054979-19.448707 54.251656-28.661252 84.96014-26.102212h64.487817v-92.637261H211.122103c-17.401474 0.511808-32.243909-12.795202-32.755716-30.196676v-119.763089H113.87857c-30.708484 2.55904-60.905161-7.165313-84.96014-26.102212-20.472323-20.984131-30.708484-49.133575-28.661252-78.306635v-181.180057c-2.047232-28.661252 8.188929-57.322504 28.661252-77.794827 23.543171-19.448707 54.251656-28.661252 84.96014-26.102212h197.046107c30.708484-2.55904 60.905161 7.165313 84.96014 26.102212 20.472323 20.984131 30.708484 49.133575 28.661252 78.306635V158.996376c2.047232 28.661252-8.188929 57.322504-28.661252 78.306635-23.543171 19.448707-54.251656 28.661252-84.96014 26.102212h-66.535049v89.054605h547.122829v-89.054605M888.244182 66.870923l122.833938 121.298513c16.889666 16.889666 16.889666 44.015494 0 60.905161-16.889666 16.889666-44.527302 16.889666-61.416969 0l-122.833937-121.298513-122.833937 121.298513c-16.889666 16.889666-44.527302 16.889666-61.416969 0a42.940697 42.940697 0 0 1 0-60.905161l122.833937-121.298513-122.833937-121.298513c-16.889666-16.889666-16.889666-44.015494 0-60.90516s44.527302-16.889666 61.416969 0l122.833937 121.298513 122.833937-121.298513c16.889666-16.889666 44.527302-16.889666 61.416969 0 16.889666 16.889666 16.889666 44.015494 0 60.90516l-122.833938 121.298513z"  horiz-adv-x="1024" />

    
    <glyph glyph-name="fenpei1" unicode="&#58963;" d="M995.328 236.544c-23.552 19.456-53.248 28.672-83.456 26.112h-66.048v119.808c-0.512 17.408-15.36 30.72-32.768 30.208h-281.6V505.344h66.048c30.208-2.56 60.416 7.168 83.968 26.112 19.968 20.992 30.208 49.152 27.648 78.336V791.04c2.56 28.672-7.68 57.344-28.16 78.336-23.552 19.456-53.248 28.672-83.968 26.112h-194.56C373.248 898.048 343.04 888.32 319.488 869.376c-19.968-20.992-30.208-49.152-28.16-78.336v-181.248c-2.048-28.672 8.192-57.344 28.16-78.336 23.552-19.456 53.76-28.672 83.968-26.112h63.488v-92.672H208.384c-17.408 0.512-31.744-12.8-32.768-30.208v-119.808H112.128c-30.208 2.56-60.416-7.168-83.456-26.112-19.968-20.992-30.208-49.152-28.16-78.336v-181.248c-2.048-28.672 8.192-57.344 28.16-77.824 23.552-19.456 53.248-28.672 83.456-26.112h194.56c30.208-2.56 60.416 7.168 83.456 26.112 19.968 20.992 30.208 49.152 28.16 78.336V158.72c2.048 28.672-8.192 57.344-28.16 78.336-23.552 19.456-53.248 28.672-83.456 26.112H240.64v89.088h540.16v-89.088h-63.488c-30.208 2.56-60.416-7.168-83.968-26.112-19.968-20.992-30.208-49.152-28.16-78.336v-181.248c-2.048-28.672 8.192-57.344 28.16-78.336 23.552-18.944 53.248-28.672 83.456-26.112h194.56c30.208-2.56 60.416 7.168 83.456 26.112 19.968 20.992 30.208 49.152 28.16 78.336V158.72c3.072 28.16-7.168 56.832-27.648 77.824z"  horiz-adv-x="1024" />

    
    <glyph glyph-name="xiangpica" unicode="&#58978;" d="M579.070799 81.916242l5.119909-5.119908c8.703844-8.703844 22.527597-8.703844 30.71945 0l359.929557 355.32164c36.351349 35.839358 36.86334 94.718305 1.023982 131.069654l-1.023982 1.023981-308.730474 304.634547c-17.919679 17.407688-41.983248 27.647505-66.558808 27.135515-25.087551 0-49.15112-9.727826-67.0708-27.135515L172.550076 513.012526c-8.703844-8.191853-8.703844-21.503615-0.511991-29.695469l0.511991-0.51199 5.119909-5.119909-118.269883-116.73391c-17.919679-17.407688-27.647505-40.959267-27.647506-66.046818s9.727826-48.127139 27.647506-66.046818l267.259216-263.67528c12.799771-12.799771 28.671487-20.991624 46.079175-25.087551H48.648294c-11.775789 0-27.135514-13.823753-27.135514-34.815377 0-21.503615 14.847734-33.279404 27.135514-33.279404h887.792109c11.775789 0 28.671487 11.775789 28.671486 33.279404s-16.383707 34.815377-28.671486 34.815377h-522.230653c17.407688 3.583936 33.279404 12.28778 46.079176 25.087551l118.781873 116.73391z m-14.847734 722.419069c17.919679 17.407688 46.591166 17.407688 64.510845 0L906.232943 530.420214c17.407688-17.407688 17.919679-45.567184 1.023982-62.974872l-1.023982-1.023982-309.754455-305.658529-4.607918 4.607918-332.794043 328.698116-4.607917 4.607917 309.754455 305.658529z m-207.356288-778.22607l-235.515784 231.931849c-17.407688 16.895698-17.407688 44.543203-1.023982 61.4389l1.023982 1.023982L225.285132 423.41413l298.490657-294.906721L419.84165 25.597251c-8.191853-8.191853-19.967643-13.311762-31.743432-12.799771-11.263798 0-22.527597 4.607918-31.231441 13.311761z"  horiz-adv-x="1024" />

    
    <glyph glyph-name="duobianxing" unicode="&#58979;" d="M760.32-128h-496.64c-6.656 0-12.288 3.584-15.36 9.728L2.048 376.32c-2.56 4.608-2.56 10.24 0 15.36l245.76 494.592C250.88 892.416 257.024 896 263.68 896h497.152c6.656 0 12.288-3.584 15.36-9.728l246.272-494.592c2.56-4.608 2.56-10.24 0-15.36l-246.272-494.592c-3.072-6.144-9.216-9.728-15.872-9.728z m-450.048 75.776h403.968c6.656 0 12.288 3.584 15.36 9.728l208.384 418.816c2.56 4.608 2.56 10.24 0 15.36l-208.384 418.816c-3.072 5.632-8.704 9.728-15.36 9.728H310.272c-6.656 0-12.288-3.584-15.36-9.728L86.016 391.68c-2.56-4.608-2.56-10.24 0-15.36l208.384-418.816c3.072-6.144 9.216-9.728 15.872-9.728z"  horiz-adv-x="1024" />

    
    <glyph glyph-name="suo1" unicode="&#58981;" d="M793.6 460.8c42.496 0 76.8-34.304 76.8-76.8v-358.4c0-42.496-34.304-76.8-76.8-76.8H230.4c-42.496 0-76.8 34.304-76.8 76.8v358.4c0 42.496 34.304 76.8 76.8 76.8h563.2z m0 76.8H230.4c-84.992 0-153.6-68.608-153.6-153.6v-358.4c0-84.992 68.608-153.6 153.6-153.6h563.2c84.992 0 153.6 68.608 153.6 153.6v358.4c0 84.992-68.608 153.6-153.6 153.6z m-281.6 281.6c98.816 0 179.2-80.384 179.2-179.2v-102.4H332.8V640c0 98.816 80.384 179.2 179.2 179.2z m0 76.8C370.688 896 256 781.312 256 640v-179.2h512V640c0 141.312-114.688 256-256 256z m0-806.4c-20.992 0-38.4 17.408-38.4 38.4v153.6c0 20.992 17.408 38.4 38.4 38.4s38.4-17.408 38.4-38.4v-153.6c0-21.504-17.408-38.4-38.4-38.4z"  horiz-adv-x="1024" />

    
    <glyph glyph-name="yanjing" unicode="&#58982;" d="M1024 409.088c0 6.144-1.024 10.752-1.536 11.264-0.512 3.072-1.024 8.192-2.048 11.264-0.512 0.512-0.512 1.536-1.024 2.048l-1.536 4.608C923.648 638.464 720.384 773.12 512 773.12S100.864 638.976 6.656 439.808c-1.024-2.048-2.048-4.096-2.56-6.144-0.512-0.512-0.512-1.024-0.512-1.536-2.048-5.12-2.048-8.704-1.536-8.192-1.024-3.584-2.048-11.264-2.048-11.264v-6.656s1.024-6.656 1.024-8.192c0-2.048 0.512-4.608 1.024-7.168 0.512-2.048 1.024-4.096 2.048-6.144 0.512-1.536 1.024-3.072 1.536-4.096 94.72-200.704 297.984-335.36 505.856-335.36 207.872 0 411.136 134.656 504.832 332.8 1.536 2.56 2.56 5.12 3.072 7.168 0.512 0.512 0.512 1.024 0.512 2.048 1.536 4.608 2.048 8.704 2.048 8.704 1.024 3.072 2.048 7.68 2.048 13.312z m-69.12-2.56v-0.512c0-0.512-0.512-1.024-0.512-1.536-83.968-175.616-261.632-293.376-442.368-293.376-180.736 0-357.888 117.76-442.368 293.888 0 0.512-0.512 1.024-0.512 2.048 0 0.512 0 1.024-0.512 1.536 0 0.512 0 1.024-0.512 1.536v0.512l0.512 2.56c0 0.512 0.512 1.024 0.512 1.536C153.6 589.312 331.264 707.072 512 707.072c181.248 0 358.4-118.272 442.368-293.376 0-0.512 0-0.512 0.512-1.024 0-0.512 0-0.512 0.512-1.024 0-1.536 0.512-2.56 0.512-3.072-0.512-0.512-0.512-1.024-1.024-2.048zM512 574.976c-94.208 0-170.496-74.24-170.496-165.376s76.288-165.376 170.496-165.376 170.496 74.24 170.496 165.376-76.288 165.376-170.496 165.376z m0-265.216c-56.32 0-102.4 44.544-102.4 99.328s46.08 99.328 102.4 99.328 102.4-44.544 102.4-99.328-45.568-99.328-102.4-99.328z"  horiz-adv-x="1024" />

    
    <glyph glyph-name="xiangshang" unicode="&#58974;" d="M473.088 619.52l-392.192-392.704c-21.504-21.504-21.504-56.832 0-78.336s56.832-21.504 78.336 0L512 501.76l352.768-352.768c21.504-21.504 56.832-21.504 78.336 0s21.504 56.832 0 78.336L551.424 619.52c-22.016 21.504-56.832 21.504-78.336 0z"  horiz-adv-x="1024" />

    
    <glyph glyph-name="xiangxia" unicode="&#58977;" d="M551.424 148.48l391.68 392.192c21.504 21.504 21.504 56.832 0 78.336-21.504 21.504-56.832 21.504-78.336 0L512 266.24 159.232 619.52c-21.504 21.504-56.832 21.504-78.336 0-21.504-21.504-21.504-56.832 0-78.336L473.088 148.48c21.504-21.504 56.32-21.504 78.336 0z"  horiz-adv-x="1024" />

    
    <glyph glyph-name="layergroup-fill" unicode="&#59317;" d="M947.648 435.456L1024 384l-512-345.088L0 384l76.352 51.456L512 141.888l435.648 293.568zM59.52 264.96L512-32l452.48 296.96 59.52-40.96L512-128l-512 352 59.52 40.96zM512 896l512-345.088-512-345.024-512 345.024L512 896z"  horiz-adv-x="1024" />

    
    <glyph glyph-name="copy-fill" unicode="&#59336;" d="M829.568 842.88H960V-128H194.432v128H64V613.568L361.92 896h467.648v-53.12z m0-80.896V0H279.488v-47.104h595.456V761.984h-45.44z"  horiz-adv-x="1024" />

    
    <glyph glyph-name="print" unicode="&#59479;" d="M832 128v-192H192v192H0V544A32 32 0 0 0 32 576h960a32 32 0 0 0 32-32V128h-192z m0 512H192V800a32 32 0 0 0 32 32h576a32 32 0 0 0 32-32V640z m-512-384v-192h384v192H320z m544 95.232a64 64 0 1 1 0 128 64 64 0 0 1 0-128z"  horiz-adv-x="1024" />

    
    <glyph glyph-name="search" unicode="&#59438;" d="M1005.312-18.752l-198.528 198.464A448 448 0 1 1 0 448a448 448 0 0 1 716.288-358.784l198.4-198.4a64 64 0 1 1 90.624 90.432zM448 128.064A320 320 0 1 0 448 768a320 320 0 0 0 0-640z"  horiz-adv-x="1024" />

    
    <glyph glyph-name="minus-square-fill" unicode="&#59512;" d="M0 896h1024v-1024H0V896z m213.312-469.376v-85.312h597.376V426.624H213.312z"  horiz-adv-x="1024" />

    
    <glyph glyph-name="plus-square-fill" unicode="&#59513;" d="M0 896h1024v-1024H0V896z m554.624-213.312H469.312v-256h-256v-85.376h256v-256h85.312v256h256V426.624h-256v256z"  horiz-adv-x="1024" />

    
    <glyph glyph-name="iconfont_xuanzeyidong" unicode="&#58975;" d="M509.952 896l167.424-167.936h-125.44v-302.592h304.128V550.912l167.936-167.424-167.936-167.936v125.44h-304.128v-301.568h125.44L509.952-128l-167.936 167.936h125.44v301.568H167.936v-125.44L0 383.488l167.936 167.424v-125.44h300.032V728.064H342.016L509.952 896z"  horiz-adv-x="1024" />

    
    <glyph glyph-name="shubiao" unicode="&#59109;" d="M654.639033-127.98904a101.998908 101.998908 0 0 0-87.999058 51.35945L427.761462 164.327831l-123.038683-107.118853a102.158907 102.158907 0 0 0-66.079293-24.799735h-0.639993a101.278916 101.278916 0 0 0-73.759211 31.999658 106.798857 106.798857 0 0 0-28.719693 71.999229l-7.519919 655.992979a102.7989 102.7989 0 0 0 14.639843 53.359429A101.998908 101.998908 0 0 0 282.403017 881.600154l563.593968-335.996404a102.7989 102.7989 0 0 0 49.679468-95.998972 105.118875 105.118875 0 0 0-71.279237-89.999037l-151.27838-53.039432 138.558517-240.957421a103.038897 103.038897 0 0 0-37.039604-140.238499l-68.319269-39.999572a100.87892 100.87892 0 0 0-51.679447-13.359857zM410.961641 256.00685a40.639565 40.639565 0 0 0 61.919338-10.479888l162.158264-282.076981a22.39976 22.39976 0 0 1 30.719671-7.999914l68.319269 39.999572a22.639758 22.639758 0 0 1 7.999914 30.879669l-161.59827 281.356989a40.879562 40.879562 0 0 0 21.919765 59.039368l198.717874 69.039261a22.639758 22.639758 0 0 1 4.159955 40.799563l-563.593968 335.996404a22.39976 22.39976 0 0 1-30.79967-7.999914 22.879755 22.879755 0 0 1-3.199966-11.839874l7.599919-658.552951a22.879755 22.879755 0 0 1 6.719928-15.999829 23.199752 23.199752 0 0 1 15.999829-6.399931 22.319761 22.319761 0 0 1 14.479845 5.519941z"  horiz-adv-x="1024" />

    
    <glyph glyph-name="iconfont_zhixian" unicode="&#58956;" d="M1024 629.76h-266.24V896h266.24v-266.24z m-202.752 63.488h138.752V832.512h-138.752v-139.264zM266.24-128H0v266.24h266.24v-266.24z m-202.752 63.488h138.752v138.752H63.488v-138.752zM197.49888 130.45248L776.39168 709.34528l54.30784-54.30272L251.8016 76.14464z"  horiz-adv-x="1024" />

    
    <glyph glyph-name="iconfont_juxing" unicode="&#58957;" d="M1017.344-128H6.656c-3.584 0-6.656 3.072-6.656 6.656V889.344C0 892.928 3.072 896 6.656 896h1010.688c3.584 0 6.656-3.072 6.656-6.656v-1010.688c0-3.584-3.072-6.656-6.656-6.656zM91.136-43.52h841.728c3.584 0 6.656 3.072 6.656 6.656V804.864c0 3.584-3.072 6.656-6.656 6.656H91.136c-3.584 0-6.656-3.072-6.656-6.656v-841.728c0-3.584 3.072-6.656 6.656-6.656z"  horiz-adv-x="1024" />

    
    <glyph glyph-name="iconfont_yuan" unicode="&#58958;" d="M512-128C229.888-128 0 101.888 0 384S229.888 896 512 896s512-229.888 512-512-229.888-512-512-512z m0 931.84c-231.424 0-419.84-188.416-419.84-419.84s188.416-419.84 419.84-419.84 419.84 188.416 419.84 419.84-188.416 419.84-419.84 419.84z"  horiz-adv-x="1024" />

    
    <glyph glyph-name="iconfont_tuoyuan" unicode="&#58964;" d="M512-34.816C229.888-34.816 0 153.088 0 384c0 230.912 229.888 418.816 512 418.816S1024 614.912 1024 384c0-230.912-229.888-418.816-512-418.816z m0 753.152C276.48 718.336 84.48 568.32 84.48 384S276.48 49.664 512 49.664s427.52 150.016 427.52 334.336S747.52 718.336 512 718.336z"  horiz-adv-x="1024" />

    
    <glyph glyph-name="iconfont_shanchu" unicode="&#58967;" d="M438.272 61.952V554.496c0 20.48-16.384 37.376-36.864 37.888-20.48 0-37.376-17.408-36.864-37.888v-492.544c0-20.992 16.384-37.888 36.864-37.888 20.48 0.512 36.864 17.408 36.864 37.888z m-73.728 757.76h294.912c20.48 0.512 36.864 17.408 36.864 37.888 0.512 20.48-16.384 37.376-36.864 37.888H364.544c-20.48-0.512-37.376-17.408-36.864-37.888 0-20.992 16.384-37.888 36.864-37.888z m479.232-189.44c-20.48-0.512-37.376-17.408-36.864-37.888v-567.808c0-41.984-32.768-75.776-73.728-75.776H290.816c-40.448 0-73.728 33.792-73.728 75.776V592.384c0.512 20.48-16.384 37.376-36.864 37.888-20.48 0-37.376-17.408-36.864-37.888V-51.2c0-41.984 33.28-75.776 73.728-75.776h589.824c40.448 0 73.728 33.792 73.728 75.776V592.384c0.512 20.48-16.384 37.376-36.864 37.888z m110.592 151.552H69.632c-20.48-0.512-36.864-17.408-36.864-37.888 0-20.992 16.384-37.888 36.864-37.888h885.248c20.48 0.512 37.376 17.408 36.864 37.888 0 20.48-16.384 37.376-37.376 37.888z m-294.912-719.872V554.496c0 20.48-16.384 37.376-36.864 37.888-20.48-0.512-36.864-17.408-36.864-37.888v-492.544c0-20.992 16.384-37.888 36.864-37.888 20.48 0.512 37.376 17.408 36.864 37.888z"  horiz-adv-x="1024" />

    
    <glyph glyph-name="iconfont_shangyibu" unicode="&#58968;" d="M0 421.888c0-11.776 4.608-22.528 12.8-30.72l199.168-187.392c0-0.512 0.512-0.512 0.512-0.512l204.8-193.536c6.656-5.12 14.848-8.192 23.04-8.704 20.48 0 36.864 17.92 36.864 39.936v157.184c152.576-17.408 287.744-59.392 375.296-112.128 35.84-20.48 81.408-51.2 135.168-92.672 3.584-2.56 8.704-4.608 13.312-4.608 12.288 0 22.528 10.752 23.552 24.064C1003.52 330.752 785.408 578.56 477.184 633.856V802.304c0 22.016-16.384 39.936-36.864 39.936-8.704-0.512-17.408-3.584-23.552-9.728L12.8 451.072C4.608 443.392 0.512 432.64 0 421.888z m78.848 0l321.024 297.472v-153.6l33.792-4.608c247.296-31.744 432.128-184.32 503.296-400.384 4.096-13.312-9.728-26.112-20.992-18.432-126.976 80.896-324.096 124.416-475.136 136.704l-40.96 3.072v-157.696l-145.92 135.68c-1.024 1.024-1.536 1.536-2.56 2.048L78.848 421.888z"  horiz-adv-x="1024" />

    
    <glyph glyph-name="xiayibu" unicode="&#58970;" d="M1011.712 451.072l-403.968 381.44c-6.144 6.144-14.848 9.216-23.552 9.728-20.48 0-36.864-17.92-36.864-39.936v-168.448C239.104 578.56 20.992 330.75199999999995 0 12.799999999999955c1.024-13.312 11.264-24.064 23.552-24.064 4.608 0 9.728 2.048 13.312 4.608 53.76 41.472 99.328 72.192 135.168 92.672 87.552 52.736 222.72 94.72 375.296 112.128V40.960000000000036c0-22.016 16.384-39.936 36.864-39.936 8.192 0.512 16.384 3.584 23.04 8.704l204.8 193.536s0.512 0 0.512 0.512l199.168 187.392c8.192 8.192 12.8 18.944 12.8 30.72-0.512 10.752-4.608 21.504-12.8 29.184zM773.12 262.144c-1.024-0.512-1.536-1.024-2.56-2.048L624.64 124.41600000000005v157.696l-40.96-3.072c-151.04-12.288-348.16-55.808-475.136-136.704-11.264-7.68-25.088 5.12-20.992 18.432 71.168 216.064 256 368.64 503.296 400.384l33.792 4.608v153.6l321.024-297.472-172.544-159.744z"  horiz-adv-x="1024" />

    
    <glyph glyph-name="iconfont_yuanjiao" unicode="&#58973;" d="M757.76 896v-78.848c-135.68-2.56-261.632-44.544-367.616-114.688H176.128v-225.28C116.736 377.856 81.92 261.632 79.36 138.24H0v-266.24h266.24v266.24H176.128c2.56 109.056 34.304 210.944 87.552 297.984h178.176V621.056c90.624 60.416 199.168 96.768 315.392 99.328V629.76h266.24V896H757.76zM178.176 74.752h24.064v-139.264H63.488v139.264h114.688z m200.192 497.152v-72.192H239.616V638.976h138.752v-67.072z m581.632 121.344h-138.752V832.512h138.752v-139.264z"  horiz-adv-x="1024" />

    
    <glyph glyph-name="lujing" unicode="&#58962;" d="M1006.882423 125.20664199999999l-236.153063-236.409055a55.870359 55.870359 0 0 0-79.869654 0l-278.007834 277.943835a56.190349 56.190349 0 0 0 0 79.869654l79.869654 79.869654-38.398872 38.398872-79.869654-79.869654a55.870359 55.870359 0 0 0-79.869653 0L16.575513 562.8897850000001a56.254348 56.254348 0 0 0 0 79.869654l236.793044 236.409055a55.870359 55.870359 0 0 0 79.869654 0l278.007834-277.943835a56.190349 56.190349 0 0 0 0-79.869654L531.376391 441.485351l38.398872-38.398872 79.869654 79.869654a55.870359 55.870359 0 0 0 79.869654 0l277.559846-277.943835a55.48637 55.48637 0 0 0 0-79.869654z m-555.56768 396.148363a56.190349 56.190349 0 0 1 0 79.869654L333.046217 719.429187a55.870359 55.870359 0 0 1-79.869654 0l-76.797744-76.797744a56.254348 56.254348 0 0 1 0-79.869654l118.268526-118.204528a55.934357 55.934357 0 0 1 79.869654 0L294.647345 524.426915a56.446342 56.446342 0 0 0 79.869654 79.869654z m395.828372-316.278709l-117.884537 118.268526a55.934357 55.934357 0 0 1-79.869654 0l79.869654-79.869654a56.446342 56.446342 0 0 0-79.869654-79.869654l-79.869654 79.869654a55.48637 55.48637 0 0 1 0-79.869654l117.884538-118.204528a55.870359 55.870359 0 0 1 79.869653 0l79.869654 79.869654a55.48637 55.48637 0 0 1 0 79.869654z"  horiz-adv-x="1024" />

    
    <glyph glyph-name="dalou" unicode="&#59041;" d="M535.744 389.984l0-539.776 357.696 0L893.44 389.984 535.744 389.984zM863.616 156.064 565.504 156.064 565.504 192.032l298.112 0L863.616 156.064zM863.616 264.032 565.504 264.032 565.504 300.064l298.112 0L863.616 264.032zM142.272-149.792l357.696 0L499.968 749.856 142.272 569.888 142.272-149.792zM172.032 515.936l298.112 0 0-35.968L172.032 479.968 172.032 515.936zM172.032 407.968l298.112 0 0-36.032L172.032 371.936 172.032 407.968zM172.032 300.064l298.112 0 0-36.032L172.032 264.032 172.032 300.064zM172.032 192.032l298.112 0 0-36.032L172.032 156 172.032 192.032z"  horiz-adv-x="1024" />

    
    <glyph glyph-name="service" unicode="&#59151;" d="M860.954 361.061c-16.238 16.239-35.72 27.214-56.35 33.054-10.351 68.842-41.594 135.118-94.487 188.007-52.89 52.897-119.165 84.141-188.006 94.493-5.84 20.626-16.814 40.103-33.050 56.339-50.714 50.714-132.939 50.714-183.651 0-32.345-32.344-43.964-77.488-35.051-119.118-12.943-9.649-25.538-19.969-37.282-31.715-99.056-99.049-123.435-244.864-73.286-367.016-47.368-50.928-46.398-130.548 3.182-180.131 49.583-49.582 129.204-50.553 180.128-3.184 41.057-16.856 84.766-25.357 128.495-25.357 86.376 0 172.763 32.879 238.52 98.646 11.744 11.743 22.062 24.337 31.71 37.28 41.632-8.917 86.781 2.702 119.127 35.048 50.714 50.717 50.714 132.94 0 183.653zM666.678 148.52c-78.086-78.072-191.623-99.174-289.19-63.904 15.582 45.438 5.391 97.756-30.864 134.012-36.256 36.256-88.58 46.445-134.019 30.86-35.274 97.57-14.171 211.116 63.91 289.197 6.81 6.808 13.899 13.171 21.214 19.118 2.436-2.903 4.95-5.767 7.681-8.499 50.713-50.712 132.937-50.712 183.651 0 18.498 18.498 30.167 41.203 35.171 65.026 52.225-10.074 102.083-35.29 142.446-75.646 40.361-40.361 65.573-90.221 75.646-142.451-23.822-5.005-46.525-16.675-65.020-35.171-50.715-50.713-50.715-132.936 0-183.651 2.73-2.73 5.589-5.241 8.492-7.677-5.946-7.318-12.308-14.405-19.117-21.214z"  horiz-adv-x="1024" />

    
    <glyph glyph-name="yujing" unicode="&#58944;" d="M512.698 895.99154c59.479973 0.832 47.114979-59.825973 47.116979-116.719948 0-23.892989 4.053998-54.129976-5.352998-69.603968-6.696997-11.014995-17.914992-17.827992-33.195985-20.344991-8.931996-1.471999-17.259992 2.154999-22.48799 4.817998-32.732985 16.673993-23.558989 65.485971-23.558989 112.972949 0 19.885991-4.197998 46.614979 2.141999 62.106972C484.306012 886.189544 495.500007 888.839543 512.698 895.98954zM208.585136 793.728586c13.819994 0.074 23.31999-3.628998 31.052986-9.637996 19.809991-24.269989 39.622982-48.546978 59.429974-72.816967 9.899996-12.715994 24.637989-24.549989 31.054986-40.155982 8.999996-21.88299-4.194998-43.241981-17.669992-51.399977-14.213994-8.604996-36.185984-6.097997-48.185979 2.678999-14.264994 10.429995-25.535989 29.928987-36.406983 43.90298l-32.659986 40.155982c-15.069993 19.365991-39.579982 42.034981-16.062992 72.280968 7.418997 9.542996 16.927992 10.007996 29.447986 14.991993z m608.763727-14.455994c30.649986 0.552 59.959973-22.94299 46.581979-56.218974-6.484997-16.126993-21.88699-26.384988-32.125986-39.084983l-41.225981-46.044979c-7.294997-9.051996-15.444993-20.829991-25.163989-27.305988-10.894995-7.260997-32.232986-9.593996-44.97698-2.141999-16.631993 9.725996-29.633987 36.021984-16.062992 58.359974l40.692981 45.50998c10.708995 11.955995 21.41699 23.916989 32.124986 35.871983 7.005997 8.701996 14.467994 19.179991 24.091989 25.164989 5.354998 1.963999 10.711995 3.924998 16.063993 5.889997z m-43.90498-750.648662H249.275118v240.399892c-0.002 48.450978-3.139999 102.016954 8.031996 139.742937 20.939991 70.720968 61.499972 119.912946 118.861947 154.199931 25.062989 14.979993 53.329976 25.541989 86.737961 32.659985l33.196985 3.211998c10.169995 0.18 20.343991 0.358 30.516986 0.536 22.70999-3.468998 43.322981-4.698998 62.643972-10.708995 88.60396-27.564988 149.631933-90.09996 176.149921-179.897919 11.109995-37.620983 8.029996-90.885959 8.029997-139.206938l-0.001-240.936891zM37.252213 520.133709c15.265993 0.33 26.269988-3.173999 38.549983-5.889998 23.554989-4.640998 47.117979-9.281996 70.673968-13.920993 17.758992-4.159998 36.597984-4.397998 47.651979-14.990994 11.362995-10.888995 19.404991-34.016985 8.565996-51.935976-5.897997-9.749996-16.166993-17.507992-28.911987-20.345991-13.312994-2.962999-27.239988 2.289999-38.013983 4.817998-23.555989 4.639998-47.118979 9.279996-70.674968 13.920994-18.123992 4.245998-37.394983 4.822998-49.793978 14.456993-17.291992 13.433994-19.893991 48.561978-1.606999 63.177972 7.049997 5.632997 14.192994 6.706997 23.559989 10.709995z m939.649578-21.418991c35.546984 0.376 59.615973-36.956983 37.480983-66.926969-12.050995-16.310993-33.019985-15.744993-57.287974-20.345991-23.915989-3.569998-47.833979-7.139997-71.748968-10.707996-10.670995-2.059999-24.655989-6.366997-36.943983-3.747998-13.916994 2.964999-25.876988 11.859995-31.050986 23.55799-10.429995 23.577989 3.129999 48.060978 20.344991 55.682975 9.942996 4.401998 22.64599 4.038998 34.801984 6.425997l71.209968 11.242995 33.194985 4.819997zM197.877141-7.250054h512.92577c65.169971 0.005 122.159945 11.685995 147.773933-31.052986 4.809998-8.023996 10.003996-21.131991 7.495997-35.871984-11.059995-65.026971-80.023964-51.937977-153.662931-51.935977H236.962124c-18.243992-0.001-40.423982-1.983999-54.075976 3.213999-29.300987 11.150995-53.709976 50.226977-31.587986 86.735961 6.311997 10.420995 17.109992 19.775991 28.911987 24.629989 5.885997 1.425999 11.776995 2.854999 17.665992 4.279998z"  horiz-adv-x="1024" />

    
    <glyph glyph-name="serve" unicode="&#58945;" d="M807.2 828.2M203.6 750.6L0 849.4 0 340l5.4-2.8c0 0 29.8-17.8 45.6 15.4l162.4 353.6C213.2 706.2 228.6 736.4 203.6 750.6zM775.2 673.2c-42.2-7.4-136 24-136 24-19 11.4-90 15.4-90 15.4-54.4 4-126.6-38.6-126.6-38.6l-175.6 0-25.6-55.2 116.4 0c-30.2-38.6-32.6-84-32.6-84 1.8-63.2-19.8-93.2-19.8-93.2-17.2-50.6 56.8-56.6 56.8-56.6 108.6 18.6 115 120.4 115 120.4 35.8 62.6 95.8 32.6 95.8 32.6l323-293.6c26.2-26 6.6-57.6 6.6-57.6-15.4-29.4-50-18-50-18l-228.4 169.4c-41.4 10.4-28-29.8-28-29.8l221.4-168.2c16.2-22.8 0-44.8 0-44.8-12-22-40.4-10.4-40.4-10.4l-200.6 147.8c-38.4 2.8-23.4-32.8-23.4-32.8l169-127.2c21.8-24 6.4-46.2 6.4-46.2-15.8-25.6-41.8-14.2-41.8-14.2L508 129c-39.2 5.4-26.6-28.8-26.6-28.8l106.6-84.6c-2.6-47.4-48-28.6-48-28.6l-28.4 21.8c-4.8 24-34.2 26.6-34.2 26.6l-31.6 24.2c1.4 23-18.8 42.6-18.8 42.6-16.6 20.8-50.6 12-50.6 12-2.8 8.6-16.6 14.6-16.6 14.6 2.2 31-17 47-17 47-21 25.6-55.6 17-55.6 17-0.8 5-11.2 12.8-11.2 12.8 7.2 37.8-9.4 57.6-9.4 57.6-17.6 32.8-68.2 20.8-68.2 20.8l-77.6 102-22.2-48.8L164.2 250l-48.6-69.2c-12.2-45 9-65.2 9-65.2 50.2-50.6 93.4 2.4 93.4 2.4-25.2-50.2 6.4-77 6.4-77 46.4-45.2 88.6 4.6 88.6 4.6-27.2-48.2 2.2-71.2 2.2-71.2 53-55.2 97.8 18.2 97.8 18.2-23.4-40.6 9.8-69.2 9.8-69.2 52.4-40.6 89.2 31.6 89.2 31.6 20.4-20.6 55.6-15 55.6-15 48.2 8.2 57.8 48.2 57.8 48.2 60.4-42.6 99.4-7.6 99.4-7.6 32.8 23.6 30 59.2 30 59.2 49.6-8 70 21.2 70 21.2 27.8 22.8 21.8 63 21.8 63 39.6 1.8 64 21.2 73.4 41.2 34 59.8-12 109-12 109l25 59.4L775.2 673.2zM815.6 749.8c0 0-23.4-10.2-12-38.8 8-7.2 169.4-359 169.4-359s15-26.4 37.2-15.6l13.8 6.6L1024 857.4 815.6 749.8z"  horiz-adv-x="1024" />

    
    <glyph glyph-name="tongji2" unicode="&#58948;" d="M891.36854844 30.845199370000046L130.0201025 30.845199370000046c-21.77243813 0-39.38129906 17.63092594-39.38129906 39.38225907L90.6388025 700.28411906c0 21.74941406 17.60886094 39.3697875 39.38129906 39.3697875 21.72830812 0 39.38129906-17.61941438 39.38129906-39.3697875l0-498.79749562 0-91.87978594 721.96810594 0c21.72830812 0 39.38225906-17.62900781 39.38225906-39.37938094C930.7498475 48.47612531000004 913.09685656 30.845199370000046 891.36854844 30.845199370000046M799.46190125 148.98526030999994l-78.76259906 0c-21.72830812 0-39.38225906 17.62037344-39.38225906 39.3688275l0 275.64990938c0 21.76188563 17.65299094 39.37938094 39.38225906 39.37938093l78.76259906 0c21.77339719 0 39.38321812-17.62037344 39.38321813-39.37938093l0-275.64990938C838.84415938 166.60563375000004 821.2362575 148.98526030999994 799.46190125 148.98526030999994M576.31527406 148.98526030999994l-78.76259906 0c-21.75037312 0-39.38225906 17.62037344-39.38225906 39.3688275L458.17041688 621.52343906c0 21.75037312 17.63188594 39.38034 39.38225906 39.38034l78.76259906 0c21.74941406 0 39.38129906-17.62996688 39.38129906-39.38034l0-433.16839218C615.69657406 166.60563375000004 598.06564719 148.98526030999994 576.31527406 148.98526030999994M353.16768875 148.98526030999994l-78.76259906 0c-21.77243813 0-39.38129906 17.62037344-39.38129907 39.3688275l0 78.76164c0 21.748455 17.60886094 39.37938094 39.38129907 39.37938094l78.76259906 0c21.75037312 0 39.38225906-17.63092594 39.38225906-39.37938094l0-78.76164C392.54898781 166.60563375000004 374.91806188 148.98526030999994 353.16768875 148.98526030999994"  horiz-adv-x="1024" />

    
    <glyph glyph-name="fangzi1" unicode="&#59025;" d="M832.118 7.373v768.46c-8.484 63.1-51.984 79.99-83.195 83.82H271.795c-64.502-7.296-87.93-47.8-95.846-83.4l0.87-768.947-133.437-1.208v-81.52l926.991-2.35-3.256 83.931-135 1.214z m-511.13 681.282l128.128 0.42-0.302-138.137-128.19-0.42 0.364 138.137zM450.022 461.88l-0.302-138.076-128.19-0.42 0.364 138.076 128.128 0.42z m0.963-412.605l-131.082-0.364 1.147 184.325 130.662 1.265-0.727-185.226z m245.105 47.032l-128.19-0.363 0.364 138.199 128.128 0.363-0.302-138.199z m0 227.497l-128.19-0.42 0.364 138.076 128.128 0.42-0.302-138.076z m0 227.134l-128.19-0.42 0.364 138.137 128.128 0.42-0.302-138.137z"  horiz-adv-x="1024" />

    
    <glyph glyph-name="bangongshibanqian" unicode="&#58949;" d="M1034.812235 895.457882A79.510588 79.510588 0 0 0 1114.352941 815.887059v-636.837647a79.510588 79.510588 0 0 0-79.540706-79.570824H636.837647v-119.356235h198.806588c21.985882 0 39.845647-17.859765 39.845647-39.845647v-39.81553H238.772706v39.81553c0 21.985882 17.829647 39.845647 39.815529 39.845647h198.927059v119.476706H79.540706A79.510588 79.510588 0 0 0 0 179.169882V815.917176A79.600941 79.600941 0 0 0 79.661176 895.397647h955.151059zM79.661176 815.887059v-557.176471h955.151059V815.887059H79.661176zM517.421176 179.169882a39.845647 39.845647 0 1 1 79.631059 0.030118 39.845647 39.845647 0 0 1-79.631059 0z"  horiz-adv-x="1114" />

    
    <glyph glyph-name="ziyuan1" unicode="&#59181;" d="M920.96-63.36V779.52L775.68 896 291.84 730.24v-41.6l439.68 135.68v-948.48H1024v60.8h-103.04zM134.4 196.48l230.4 42.24V345.6l-230.4-55.04v-94.08zM134.4-125.44h230.4v112l-230.4-15.36v-96.64zM134.4 35.84l230.4 20.48v106.88l-230.4-35.84v-91.52zM134.4 359.68l230.4 58.24V529.28L134.4 458.24v-98.56zM0 547.2V-128h64.64V514.56l366.72 110.72v-750.08h188.8V636.8L490.24 709.12 0 547.2z"  horiz-adv-x="1024" />

    
    <glyph glyph-name="shijian-copy" unicode="&#58951;" d="M511.7515625-30.799687500000005C283.4028125-30.799687500000005 97.625 154.96875 97.625 383.3109375c0 110.5546875 43.03125 214.5140625 121.171875 292.730625 4.198125 4.209375 9.7875 6.5259375 15.7396875 6.5259375 5.941875 0 11.5284375-2.3090625 15.7265625-6.511875 8.6765625-8.668125 8.685-22.7803125 0.0196875-31.456875-69.7490625-69.815625-108.159375-162.6084375-108.159375-261.2878125 0-203.8059375 165.81375-369.615 369.628125-369.615 203.805 0 369.61875 165.8090625 369.61875 369.615 0 196.4775-152.0896875 357.3665625-347.3728125 368.9653125l0-124.040625c0-12.27-9.97875-22.2525-22.2459375-22.2525-12.271875 0-22.254375 9.9825-22.254375 22.2525L489.4971875 797.4375l22.254375 0c110.439375 0 214.3865625-43.1259375 292.6940625-121.42875 78.301875-78.3065625 121.42875-182.25375 121.425-292.6978125C925.8696875 154.96875 740.095625-30.799687500000005 511.7515625-30.799687500000005L511.7515625-30.799687500000005zM511.746875 328.396875c-14.6634375 0-28.4503125 5.7121875-38.8171875 16.0809375-19.2975 19.30125-164.6128125 231.1959375-170.79 240.21l8.2340625 8.2321875c9.0103125-6.1771875 220.8965625-151.486875 240.195-170.791875 10.3715625-10.370625 16.0875-24.1584375 16.0875-38.8303125 0-14.6709375-5.7121875-28.456875-16.0875-38.82375-10.3678125-10.3678125-24.1546875-16.0771875-38.818125-16.0771875L511.746875 328.396875 511.746875 328.396875zM511.746875 328.396875"  horiz-adv-x="1024" />

    
    <glyph glyph-name="zaijianzongjianzhumianji" unicode="&#58953;" d="M893.3 78.6H857V510.1c0 39.5-32.7 71.9-72.7 71.9H638.9v-503.4h-36.4V689.9c0 39.5-32.7 71.9-72.7 71.9H239.1c-40 0-72.7-32.4-72.7-71.9v-611.3h-36.3c-10.9 0-18.2-7.2-18.2-18v-36c0-10.8 7.2-18 18.2-18h763.2c10.9 0 18.2 7.2 18.2 18v36c0 10.8-7.3 18-18.2 18zM348.2 240.4c0-10.8-7.3-18-18.2-18h-72.7c-10.9 0-18.2 7.2-18.2 18v36c0 10.8 7.3 18 18.2 18H330c10.9 0 18.2-7.2 18.2-18v-36z m0 143.8c0-10.8-7.3-18-18.2-18h-72.7c-10.9 0-18.2 7.2-18.2 18v36c0 10.8 7.3 18 18.2 18H330c10.9 0 18.2-7.2 18.2-18v-36z m0 143.9c0-10.8-7.3-18-18.2-18h-72.7c-10.9 0-18.2 7.2-18.2 18v36c0 10.8 7.3 18 18.2 18H330c10.9 0 18.2-7.2 18.2-18v-36z m181.7-287.7c0-10.8-7.3-18-18.2-18H439c-10.9 0-18.2 7.2-18.2 18v36c0 10.8 7.3 18 18.2 18h72.7c10.9 0 18.2-7.2 18.2-18v-36z m0 143.8c0-10.8-7.3-18-18.2-18H439c-10.9 0-18.2 7.2-18.2 18v36c0 10.8 7.3 18 18.2 18h72.7c10.9 0 18.2-7.2 18.2-18v-36z m0 143.9c0-10.8-7.3-18-18.2-18H439c-10.9 0-18.2 7.2-18.2 18v36c0 10.8 7.3 18 18.2 18h72.7c10.9 0 18.2-7.2 18.2-18v-36z m272.6-287.7c0-10.8-7.3-18-18.2-18h-72.7c-10.9 0-18.2 7.2-18.2 18v36c0 10.8 7.3 18 18.2 18h72.7c10.9 0 18.2-7.2 18.2-18v-36z m0 143.8c0-10.8-7.3-18-18.2-18h-72.7c-10.9 0-18.2 7.2-18.2 18v36c0 10.8 7.3 18 18.2 18h72.7c10.9 0 18.2-7.2 18.2-18v-36z m0 0"  horiz-adv-x="1024" />

    
    <glyph glyph-name="tongji" unicode="&#59261;" d="M870.4 844.8a102.4 102.4 0 0 0 102.4-102.4v-563.2a102.4 102.4 0 0 0-102.4-102.4h-223.3856l165.632-94.6688a38.4 38.4 0 0 0 15.9744-49.0752l-1.6896-3.328a38.4 38.4 0 0 0-49.0752-15.9488l-3.328 1.6896-249.728 142.6944-249.7536-142.6944a38.4 38.4 0 0 0-41.216 64.6912l3.1232 1.9712L402.56 76.8H153.6a102.4 102.4 0 0 0-102.4 102.4V742.4a102.4 102.4 0 0 0 102.4 102.4h716.8z m-129.28-228.608l-205.6448-201.856-101.2224 115.9424a38.4 38.4 0 0 1-55.808 2.1504L229.0688 385.792a38.4 38.4 0 0 1 53.8112-54.784l120.2688 118.0928 101.2224-115.968a38.4 38.4 0 0 1 55.8336-2.1248l234.6752 230.4a38.4 38.4 0 1 1-53.8112 54.784z"  horiz-adv-x="1024" />

    
    <glyph glyph-name="tuijian" unicode="&#58966;" d="M225.28 609.28h716.8a81.92 81.92 0 0 0 81.92-81.92v-286.72a81.92 81.92 0 0 0-81.92-81.92H225.28a81.92 81.92 0 0 0-81.92 81.92v62.21824L0 382.7712l143.36 85.83168V527.36a81.92 81.92 0 0 0 81.92 81.92zM810.27072 311.15264v-38.0928c0-18.1248-9.216-27.3408-27.3408-27.3408h-37.15072l-8.6016 28.2624c14.4384-1.2288 25.8048-1.8432 34.0992-1.8432 6.144 0 9.50272 3.072 9.50272 9.216v29.7984H699.392v27.648h81.38752v14.7456c7.9872 5.2224 18.7392 11.9808 32.256 20.2752H720.896v26.4192h133.91872v-20.8896c-12.9024-10.1376-27.9552-21.1968-44.544-33.4848v-7.0656h64.2048v-27.648h-64.2048z m-3.6864 151.42912h-29.47072v19.968h-74.3424v-19.6608h-29.4912v19.6608h-67.584v26.7264h67.584v19.3536h29.4912v-19.3536h74.3424v19.3536h29.47072v-19.3536h67.584v-26.7264h-67.584v-19.968z m-195.97312-44.21632v26.70592h85.4016c3.3792 7.0656 6.4512 14.1312 9.216 20.8896l28.2624-4.9152c-1.8432-5.5296-3.9936-10.752-6.144-15.9744h145.28512v-26.70592H714.1376c-9.216-15.6672-19.968-30.4128-32.256-44.544v-129.024H653.9264v101.6832c-11.3664-9.8304-23.3472-19.0464-36.2496-27.648l-18.432 23.9616c34.4064 22.1184 61.1328 47.3088 80.7936 75.5712h-69.4272z m-169.8816-171.4176h-28.8768v170.1888c-6.144-8.9088-12.9024-17.5104-19.968-26.112l-9.8304 30.72c24.2688 32.54272 41.472 67.87072 51.3024 106.57792l28.2624-5.5296c-4.3008-15.36-9.5232-30.1056-15.6672-44.2368h46.98112c-4.9152 14.7456-10.4448 29.4912-16.5888 43.6224l27.9552 7.3728c6.7584-18.7392 12.288-35.6352 15.9744-50.9952h47.0016v-27.9552h-50.0736v-35.30752h43.9296v-27.3408h-43.9296v-34.0992h43.9296v-27.0336h-43.9296v-38.0928h53.4528v-27.9552H440.7296v-13.824z m47.59552 203.65312H440.7296v-35.30752h47.59552v35.30752z m0-62.64832H440.7296v-34.0992h47.59552v34.0992z m0-99.2256v38.0928H440.7296v-38.0928h47.59552z m-127.16032 104.1408c8.9088 3.6864 17.5104 7.68 26.112 11.9808v-29.7984c-8.6016-3.9936-17.5104-7.68-26.112-11.3664v-83.5584c0-19.968-10.4448-30.1056-31.0272-30.1056h-27.648l-6.4512 28.2624c8.2944-1.2288 16.2816-1.8432 23.9616-1.8432 7.9872 0 11.9808 3.6864 11.9808 11.0592v65.1264c-11.6736-3.9936-23.6544-7.68-35.328-11.0592l-7.3728 29.4912c14.4384 3.072 28.5696 6.7584 42.7008 11.0592v64.49152h-36.864v28.2624h36.864v54.0672h29.184v-54.0672h28.5696v-28.2624h-28.5696v-53.73952z"  horiz-adv-x="1024" />

    
    <glyph glyph-name="zan" unicode="&#58942;" d="M201.254265 492.166737H65.493423a65.428211 65.428211 0 0 1-65.212631-70.871579l38.157473-456.057263c2.802526-33.953684 31.151158-60.038737 65.212632-60.038737h97.603368a32.714105 32.714105 0 0 1 32.714106 32.714105V459.452632a32.714105 32.714105 0 0 1-32.714106 32.714105z m711.087158 0h-292.917895c100.783158 373.382737-70.063158 392.515368-70.063157 392.515368-72.488421 0-57.451789-57.397895-62.895158-66.937263 0-138.563368-111.292632-254.329263-165.402948-302.349474-13.797053-12.395789-21.665684-30.073263-21.557894-48.613052v-528.869053c0-18.054737 14.605474-32.714105 32.66021-32.714105h382.652632c49.744842 0 95.178105 28.186947 117.274947 72.757895a1799.006316 1799.006316 0 0 1 89.465263 219.674947c22.528 69.524211 43.008 155.755789 54.972632 216.441263a65.374316 65.374316 0 0 1-64.188632 78.147369z"  horiz-adv-x="1024" />

    
    <glyph glyph-name="new" unicode="&#58947;" d="M1102.769231 423.384615c-15.753846 0-23.630769 0-39.384616-7.876923s-23.630769-7.876923-31.507692-15.753846l-23.630769-23.630769c-7.876923-7.876923-7.876923-15.753846-7.876923-23.630769h173.292307v7.876923 7.876923c0 15.753846-7.876923 31.507692-15.753846 39.384615-15.753846 7.876923-31.507692 15.753846-55.138461 15.753846zM2048 896H157.538462C70.892308 896 0 825.107692 0 738.461538v-708.923076c0-86.646154 70.892308-157.538462 157.538462-157.538462h1890.461538c86.646154 0 157.538462 70.892308 157.538462 157.538462V738.461538c0 86.646154-70.892308 157.538462-157.538462 157.538462zM748.307692 108.307692H598.646154l-157.538462 370.215385-63.015384-370.215385H252.061538l94.523077 559.261539h149.661539l149.661538-370.215385 63.015385 370.215385h126.030769L748.307692 108.307692z m535.63077 204.8c0-15.753846-7.876923-31.507692-7.876924-39.384615h-283.56923V265.846154c0-7.876923 0-23.630769 7.876923-31.507692 7.876923-7.876923 7.876923-15.753846 15.753846-23.63077 7.876923-7.876923 15.753846-7.876923 23.630769-15.753846 7.876923 0 23.630769-7.876923 31.507692-7.876923 23.630769 0 39.384615 0 55.138462 7.876923 15.753846 7.876923 31.507692 15.753846 39.384615 31.507692l78.769231-63.015384c-23.630769-23.630769-55.138462-47.261538-86.646154-55.138462-31.507692-15.753846-63.015385-15.753846-102.4-15.753846-23.630769 0-55.138462 0-78.76923 7.876923-23.630769 7.876923-47.261538 15.753846-63.015385 31.507693-15.753846 15.753846-31.507692 31.507692-39.384615 55.138461-7.876923 23.630769-15.753846 47.261538-15.753847 78.769231s7.876923 63.015385 15.753847 94.523077c15.753846 31.507692 31.507692 55.138462 47.261538 78.769231s47.261538 39.384615 70.892308 47.261538c31.507692 15.753846 63.015385 15.753846 94.523077 15.753846 23.630769 0 47.261538 0 70.892307-7.876923 23.630769-7.876923 39.384615-15.753846 55.138462-31.507692s23.630769-31.507692 39.384615-55.138462c7.876923-23.630769 15.753846-47.261538 15.753846-70.892307 15.753846 0 15.753846-7.876923 15.753847-23.63077zM1811.692308 108.307692h-126.03077L1654.153846 352.492308 1520.246154 108.307692h-126.030769L1339.076923 502.153846h133.907692l23.63077-252.061538L1614.769231 502.153846h126.030769l23.630769-252.061538L1890.461538 502.153846h133.907693L1811.692308 108.307692z"  horiz-adv-x="2205" />

    
    <glyph glyph-name="new1" unicode="&#59246;" d="M1858.638769 509.243077l-238.276923-594.904615h-202.752c8.979692 72.704 22.449231 168.487385 40.369231 287.389538a2789.927385 2789.927385 0 0 0-64.590769-158.286769l-56.004923-129.102769h-203.224616L1218.796308 509.243077h160.964923c-3.072-15.556923-20.716308-129.102769-52.972308-340.676923 8.034462 21.740308 53.287385 135.325538 135.758769 340.676923h154.624l-55.926154-340.676923c33.358769 99.524923 78.887385 213.070769 136.625231 340.676923h160.807385z m-734.759384-293.533539h-256l-37.494154-143.832615c-7.876923-30.050462-10.791385-49.427692-8.782769-58.131692 1.969231-8.664615 8.979692-12.996923 21.070769-12.996923 14.966154 0 26.505846 5.750154 34.579692 17.250461 8.073846 11.539692 16.423385 33.870769 25.009231 66.914462l22.882461 87.670154h187.47077l-12.8-49.112616c-10.712615-41.078154-21.425231-72.625231-32.256-94.680615-10.791385-22.055385-28.750769-45.607385-53.917539-70.656a249.304615 249.304615 0 0 0-85.385846-56.359385c-31.822769-12.524308-69.277538-18.786462-112.324923-18.786461-41.787077 0-77.036308 6.183385-105.826462 18.510769-28.750769 12.366769-49.230769 29.302154-61.36123 50.806154a143.438769 143.438769 0 0 0-18.392616 71.168c-0.118154 25.875692 6.301538 63.566769 19.180308 113.033846l50.530461 193.851077c15.163077 58.131692 34.776615 103.975385 58.840616 137.570461 24.103385 33.555692 55.926154 59.273846 95.507692 77.154462a306.018462 306.018462 0 0 0 127.409231 26.781538c55.453538 0 98.422154-10.752 128.866461-32.295384 30.404923-21.543385 48.246154-50.097231 53.523693-85.661539 5.238154-35.603692-0.551385-85.622154-17.329231-150.055384l-23.000615-88.14277z m-163.485539 238.473847c-13.705846 0-23.315692-4.253538-28.750769-12.760616-5.513846-8.507077-13.154462-31.507692-22.843077-68.923077l-12.721231-48.56123h57.737846l12.681847 48.56123c8.979692 34.422154 12.957538 56.635077 11.972923 66.678154-0.945231 10.003692-7.010462 14.966154-18.116923 14.966154zM796.317538 588.406154c-43.559385-19.022769-78.651077-46.355692-105.156923-82.116923-26.505846-35.721846-48.128-84.48-64.787692-146.313846L570.683077 153.6c-14.178462-52.578462-21.228308-92.672-21.110154-120.201846 0.118154-27.569231 6.892308-52.775385 20.283077-75.697231 13.390769-22.921846 35.918769-40.96 67.584-54.075077 1.299692-0.551385 2.835692-0.905846 4.135385-1.457231l-5.316923-19.219692H398.966154l-14.532923 455.522462-126.267077-455.522462H31.822769L309.641846 885.011692h226.343385l26.663384-451.150769L687.773538 884.972308h226.343385l-78.336-282.505846c-13.390769-3.977846-26.624-8.507077-39.463385-14.099693z"  horiz-adv-x="1890" />

    
    <glyph glyph-name="hand-copy" unicode="&#58941;" d="M343.254 11.179h492.21c31.056 0 56.228 25.122 56.228 56.254v70.348c23.278 0 42.183 18.828 42.183 42.158v337.494c0 31.029-25.198 56.202-56.254 56.202h-220.51c1.638 50.804-1.202 150.93-43.181 210.1-37.187 50.679-53.617 56.729-77.383 65.565-29.075 10.807-71.423-5.499-71.423-36.53 0 0 14.53-108.030-24.303-174.030-16.909-28.727-37.553-50.113-55.511-65.105h-238.929c-31.056 0-56.254-25.173-56.254-56.202v-450.002c0-31.132 25.198-56.254 56.254-56.254h196.875zM343.254 520.809v-456.753h-151.491c-26.937 0-48.733 20.081-48.733 45.023v366.73c0 24.841 21.82 45.022 48.733 45.022l151.491-0.023zM726.333 404.954c0-15.529 12.586-28.139 28.139-28.139h126.551v-70.348h-126.55c-15.529 0-28.139-12.586-28.139-28.139 0-15.476 12.586-28.139 28.139-28.139h126.551v-56.254h-126.551c-15.529 0-28.139-12.535-28.139-28.036 0-15.529 12.586-28.139 28.139-28.139h84.394v-28.7c0-24.941-25.222-45.023-52.16-45.023h-382.979v456.928c53.123 34.985 68.253 61.984 74.903 72.012 41.313 62.444 42.209 167.89 42.209 167.89 0 31.081 7.405 42.783 25.478 20.286 0 0 47.275-51.553 47.275-204.115-0.486-10.54-0.051-28.727 5.065-38.679 6.625-12.74 13.481-17.549 44.537-17.549h189.044c26.937 0 48.759-20.183 48.759-45.023v-42.743h-126.553c-15.529 0.026-28.114-12.636-28.114-28.089v0l-0.001-0.001zM216.678 179.964c0-15.578 12.611-28.139 28.139-28.139s28.139 12.535 28.139 28.139c0 15.529-12.586 28.089-28.139 28.089-15.502-0.025-28.139-12.56-28.139-28.089z"  horiz-adv-x="1024" />

    
    <glyph glyph-name="shanchu2" unicode="&#59018;" d="M684.642617 618.401588l-1.436722 1.467421c-12.489452 12.461823-32.730449 12.461823-45.159526 0L479.700991 461.489862l-158.286026 158.315702c-12.555967 12.524245-32.793894 12.524245-45.225017 0-12.555967-12.462846-12.555967-32.701796 0-45.223994l158.348448-158.317749L276.129573 257.950166c-12.495592-12.429077-12.495592-32.671097 0-45.163619l1.49812-1.434675c12.429077-12.494569 32.66905-12.494569 45.221948 0l158.287049 158.286026 158.283979-158.286026c12.491499-12.494569 32.731472-12.494569 45.220924 0 12.495592 12.493545 12.495592 32.731472 0 45.222971l-158.285003 158.285003 158.285003 158.314679C697.138209 585.700815 697.138209 605.939765 684.642617 618.401588M818.88197 755.477546c-187.332573 187.363272-491.033479 187.363272-678.364005 0-187.329503-187.329503-187.329503-491.032456 0-678.362982 187.330526-187.392948 491.031433-187.392948 678.364005 0C1006.274918 264.44509 1006.274918 568.148044 818.88197 755.477546M773.656953 122.339582c-162.344458-162.343435-425.569512-162.407903-587.914994 0-162.40688 162.344458-162.40688 425.602258 0 587.914994 162.344458 162.40688 425.569512 162.40688 587.914994 0C936.063833 547.940816 936.000388 284.68404 773.656953 122.339582"  horiz-adv-x="1024" />

    
    <glyph glyph-name="eye-fill" unicode="&#59307;" d="M512 64c-213.888 0-384.512 106.688-512 320 129.408 213.312 300.032 320 512 320 211.968 0 382.592-106.688 512-320-127.488-213.312-298.112-320-512-320z m0 64a256 256 0 1 1 0 512 256 256 0 0 1 0-512z m0 128a128 128 0 1 1 0 256 128 128 0 0 1 0-256z"  horiz-adv-x="1024" />

    
    <glyph glyph-name="external-link" unicode="&#59442;" d="M719.168 688.832L576 832h384v-384l-150.272 150.272-264.128-264.064-90.496 90.496 264.064 264.128zM192-64H64V832h384v-128H192v-640h640V320h128v-384H192z"  horiz-adv-x="1024" />

    
    <glyph glyph-name="edit" unicode="&#59296;" d="M652.4 739.3875a112.5 112.5 0 1 0 155.925-161.15625L731.375 501.28125 572.3 660.4125l79.5375 79.5375 0.5625-0.5625zM333.63125 103.59375v-0.1125H174.5v159.1875l358.03125 357.975 159.075-159.13125-357.975-357.91875zM62 46.5h900v-112.5H62v112.5z"  horiz-adv-x="1024" />

    
    <glyph glyph-name="shijian" unicode="&#58935;" d="M874.291 746.086c-96.751 96.657-225.331 149.914-362.172 149.914-136.798 0-265.395-53.257-362.103-149.931-96.742-96.7-150.016-225.297-150.016-362.069-0.026-136.798 53.205-265.353 149.939-362.121 96.691-96.614 225.306-149.879 362.086-149.879 136.841 0 265.498 53.299 362.266 149.982 199.637 199.603 199.671 524.416 0 724.105v0 0zM827.093 69.171c-84.156-84.122-196.045-130.492-315.068-130.492-118.938 0-230.801 46.353-314.906 130.389-84.096 84.096-130.406 195.942-130.381 314.931 0 118.972 46.327 230.827 130.449 314.897 84.122 84.079 195.951 130.372 314.931 130.372 118.989 0 230.835-46.293 314.974-130.381 173.636-173.628 173.636-456.149 0-629.717v0 0zM733.423 258.526l-177.033 102.349v279.125c0 23.552-19.115 42.667-42.684 42.667-23.552 0-42.667-19.106-42.667-42.667v-298.675c0-15.829 19.678-29.099 32.478-36.437 3.541-5.325 13.269-10.155 19.209-13.568l176.051-106.675c20.395-11.767 42.505-4.77 54.281 15.616 11.776 20.412 0.811 46.481-19.635 58.266v0 0zM733.423 258.526z"  horiz-adv-x="1025" />

    
    <glyph glyph-name="didian" unicode="&#58938;" d="M512 346.08101c-88.613235 0-158.003174 70.955633-158.003174 159.569875 0 88.646462 69.389939 159.569875 158.003174 159.569875 88.614242 0 158.004181-70.923412 158.004181-159.569875C670.004181 417.03765 600.614242 346.08101 512 346.08101L512 346.08101zM512 584.245694c-41.87501 0-74.970051-33.846172-74.970051-78.593802 0-44.71541 33.095042-78.561582 74.970051-78.561582s74.972065 33.847179 74.972065 78.561582C586.971058 550.399522 553.87501 584.245694 512 584.245694L512 584.245694zM848.993693 342.229706c-26.20901-76.112857-67.594677-156.273359-120.012696-238.033789-32.312698-50.427423-66.908994-98.406121-101.473069-142.499281-12.14193-15.438446-23.401836-29.277971-33.552164-41.385667-6.168129-7.344161-10.60745-12.501385-12.108703-14.165753-37.305802-45.497753-102.094312-45.171525-138.68221-1.141799-2.513165 2.806166-6.951479 7.963391-13.120615 15.307552-10.151334 12.108703-21.41124 25.947222-33.553171 41.385667-34.564075 44.094167-69.161378 92.072865-101.473069 142.499281-52.418019 81.76043-93.803687 161.920933-120.011689 238.033789-20.007654 58.129026-30.712771 112.799429-30.712771 163.421179 0 207.712694 162.605609 373.908826 367.706464 373.908826S879.706464 713.363579 879.706464 505.650885C879.706464 455.029135 869.001347 400.358731 848.993693 342.229706L848.993693 342.229706zM512 798.550412c-158.362629 0-284.673341-129.085665-284.673341-292.899527 0-41.027219 9.040749-87.242876 26.404344-137.637072 23.858959-69.323485 62.43846-144.066989 111.656623-220.865529 30.843665-48.076365 63.939713-94.031241 97.034755-136.201265 11.553914-14.719536 22.292258-27.906604 31.888803-39.329624 5.678787-6.788365 9.693205-11.424027 12.500379-14.655095 4.24298-5.09077 6.201356-5.09077 11.162239 0.947471 2.023823 2.283597 6.038242 6.919259 11.717028 13.707624 9.595538 11.42302 20.333882 24.610089 31.888803 39.329624 33.095042 42.170025 66.190083 88.1249 97.034755 136.201265 49.219171 76.79854 87.797665 151.541037 111.656623 220.865529 17.363595 50.394196 26.404344 96.61086 26.404344 137.637072C796.674348 669.464747 670.362629 798.550412 512 798.550412L512 798.550412z"  horiz-adv-x="1024" />

    
    <glyph glyph-name="paperplane-fill" unicode="&#59305;" d="M312.128 97.60000000000002L833.28 616.96l-521.344-405.76L0 384l1024 512-120.832-1024-283.968 164.16L312.128-128v225.6z m517.12 514.944l-0.512 0.64 4.544 3.712-4.032-4.352z"  horiz-adv-x="1024" />

    
    <glyph glyph-name="delete-fill" unicode="&#59342;" d="M341.312 810.688l64 85.312h213.376l64-85.312H960v-85.376H64V810.688h277.312zM170.688 640h682.624v-768H170.688V640z m298.624-170.688H384v-426.624h85.312V469.312z m170.688 0H554.688v-426.624H640V469.312z"  horiz-adv-x="1024" />

    
    <glyph glyph-name="calendaralt-fill" unicode="&#59352;" d="M929.28 793.472H1024V-128H0V793.472h94.72l4.864 0.128h113.728V896H312.96v-102.4h398.208V896h99.584v-102.4h113.728c1.664 0 3.2 0 4.864-0.128zM924.416 588.8V691.2H99.584v-102.4h824.832zM192 384v-128h128V384H192z m256 0v-128h128V384H448z m256 0v-128h128V384h-128z m-512-192v-128h128v128H192z m256 0v-128h128v128H448z m256 0v-128h128v128h-128z"  horiz-adv-x="1024" />

    
    <glyph glyph-name="check-circle-fill" unicode="&#59362;" d="M512-128A512 512 0 1 0 512 896a512 512 0 0 0 0-1024zM448 290.88L277.312 453.824 192 372.352 448 128l384 366.528L746.688 576 448 290.88z"  horiz-adv-x="1024" />

    
    <glyph glyph-name="reply" unicode="&#59439;" d="M398.208 593.088V832L0 413.888l398.208-418.176V240.64c284.48 0 483.584-95.552 625.792-304.64-56.896 298.688-227.584 597.312-625.792 657.088z"  horiz-adv-x="1024" />

    
    <glyph glyph-name="waiting-fill" unicode="&#59522;" d="M512-128A512 512 0 1 0 512 896a512 512 0 0 0 0-1024zM320 320a64 64 0 1 1 0 128 64 64 0 0 1 0-128z m192 0a64 64 0 1 1 0 128 64 64 0 0 1 0-128z m192 0a64 64 0 1 1 0 128 64 64 0 0 1 0-128z"  horiz-adv-x="1024" />

    
    <glyph glyph-name="shuaxin" unicode="&#58934;" d="M1247.30624 497.36576l-8.18048-25.94048c0.2752-1.30048 0.69504-2.5152 0.94464-3.8144H1238.016l-12.22528-38.73536-68.18048 21.70496-136.31488 43.4304 21.62048 68.51456 84.9152-27.05536c-62.87488 124.5952-196.4352 197.12512-335.1744 182.01472-138.74048-15.10912-253.56032-114.68928-288.1408-249.89952h-86.48448c35.28448 173.23008 175.4496 305.71008 350.38976 331.17568 174.94528 25.46432 347.0656-61.55008 430.27456-217.53088l23.6096 74.86976 68.13952-21.70496-43.13856-137.02912zM617.13152 290.08512l-21.70496-66.70976-71.74016 22.14656c60.12032-133.33504 199.75552-212.28672 344.99968-195.06688 145.24544 17.21984 262.54976 126.6368 289.82528 270.33088h84.77056c-27.84-185.44-175.59552-329.75616-361.63968-353.216-186.05056-23.45984-365.0048 79.65568-438.00448 252.38528l-28.54528-87.68-68.3648 21.14176 65.00992 200.0832 68.47488-21.13536 136.91904-42.27968z m0 0"  horiz-adv-x="1638" />

    
    <glyph glyph-name="ren3" unicode="&#58933;" d="M512-359.489906M499.719368 390.959025c48.099141 31.417949 79.926444 85.759744 79.926444 147.469918 0 97.01699-79.005397 176.022387-176.022387 176.022387-97.01699 0-176.022387-79.005397-176.022387-176.022387 0-61.607835 31.827304-115.94963 79.926444-147.469918-44.312612-14.736758-84.941035-39.605037-118.91745-73.581451-57.411953-57.411953-89.034579-133.756546-89.034579-214.911053 0-12.485309 10.029182-22.514491 22.514491-22.514491s22.514491 10.029182 22.514491 22.514491c0 142.762343 116.154307 258.91665 258.91665 258.91665s258.91665-116.154307 258.91665-258.91665c0-12.485309 10.029182-22.514491 22.514491-22.514491s22.514491 10.029182 22.514491 22.514491c0 81.154507-31.622626 157.499101-89.034579 214.911053C584.660404 351.251649 544.031981 376.222267 499.719368 390.959025zM272.630022 538.326604c0 72.251049 58.742355 130.993404 130.993404 130.993404 72.251049 0 130.993404-58.742355 130.993404-130.993404s-58.742355-130.993404-130.993404-130.993404C331.474715 407.3332 272.630022 466.075555 272.630022 538.326604zM828.942634 302.436138c-34.692784 51.06696-84.019988 90.160304-141.227264 112.367779 25.379972 37.762942 38.888667 82.280232 38.479312 128.230262-0.409354 55.876874-21.286428 109.39996-58.640016 150.744753-8.391765 9.210474-22.61683 9.926844-31.827304 1.535079-9.210474-8.391765-9.926844-22.61683-1.535079-31.827304 62.528883-68.976214 62.938237-173.56626 0.921047-243.258845-1.43274-1.637418-2.660804-3.479512-3.479512-5.321607-1.125725-1.739756-1.944433-3.684189-2.558465-5.8333-3.274835-11.973616 3.888867-24.356586 15.862483-27.631421C768.665201 348.28383 848.591645 231.822506 835.185289 104.717969c-1.330402-12.38297 7.675395-23.435539 20.058365-24.76594 0.818709-0.102339 1.637418-0.102339 2.353788-0.102339 11.359584 0 21.18409 8.596442 22.412153 20.160704C887.480312 171.135719 869.36638 243.079752 828.942634 302.436138z"  horiz-adv-x="1024" />

    
    <glyph glyph-name="richeng" unicode="&#58930;" d="M353.574293 711.395562c13.731746 0 24.904203 11.172457 24.904203 24.90625L378.478496 825.689654c0 13.731746-11.171434 24.90318-24.904203 24.90318s-24.904203-11.171434-24.904203-24.90318l0-89.387843C328.67009 722.569042 339.842547 711.395562 353.574293 711.395562zM695.859983 711.395562c13.734816 0 24.908296 11.172457 24.908296 24.90625L720.768279 825.689654c0 13.731746-11.17348 24.90318-24.908296 24.90318-13.730723 0-24.902156-11.171434-24.902156-24.90318l0-89.387843C670.957827 722.569042 682.12926 711.395562 695.859983 711.395562zM432.061878 756.08846l188.583053 0c13.734816 0 24.908296 11.172457 24.908296 24.90625 0 13.732769-11.17348 24.905226-24.908296 24.905226L432.061878 805.899936c-13.733792 0-24.908296-11.172457-24.908296-24.905226C407.153582 767.26194 418.328086 756.08846 432.061878 756.08846zM251.104503 352.615199l547.225269 0c13.731746 0.001023 24.90318 12.534478 24.90318 27.939329 0 15.405875-11.171434 27.940352-24.90318 27.940352L251.104503 408.49488c-13.731746 0-24.90318-12.534478-24.90318-27.940352C226.201324 365.148653 237.372757 352.615199 251.104503 352.615199zM842.801636 808.080601l-66.820871 0c-0.390903 0-0.785899-0.027629-1.181919-0.057305-0.274246-0.020466-0.548492-0.042979-0.825808-0.042979-14.709003 0-26.675546-12.009522-26.675546-26.770713 0-14.141068 11.07729-25.752524 25.036209-26.668383l0-0.630357 71.720462 0c31.384801 0 56.917314-25.53149 56.917314-56.913221l0-105.402585c0-1.446955-1.177825-2.623757-2.625804-2.623757L155.450956 588.971301c-1.445932 0-2.62171 1.176802-2.62171 2.623757L152.829246 696.99355c0 31.382754 25.529443 56.914244 56.909128 56.914244l63.565734 0 0.149403-0.004093 0.2415 0.005117 0 0.270153c14.546298 0.255827 26.342971 12.232602 26.342971 26.801413 0 14.851243-11.93482 26.932396-26.605961 26.932396-0.224104 0-0.435928 0.034792-0.647753 0.062422-0.354064 0.046049-0.795109 0.104377-1.290389 0.104377l-60.505026 0c-61.340043 0-111.243617-49.903573-111.243617-111.243617l0-635.918287c0-60.879556 49.526997-110.408599 110.403482-110.408599l632.657011 0c61.340043 0 111.243617 49.901527 111.243617 111.2385L954.049347 696.834938C954.05037 758.176005 904.143727 808.080601 842.801636 808.080601zM152.829246 536.537092c0 1.445932 1.175779 2.62171 2.62171 2.62171l742.894717 0c1.447978 0 2.625804-1.175779 2.625804-2.62171l0-475.786217c0-31.519878-25.647123-57.161884-57.172117-57.161884L210.237747 3.588991c-31.654954 0-57.408501 25.756617-57.408501 57.414641L152.829246 536.537092zM251.104503 155.684014l547.239596 0c0 0 0 0 0.001023 0 6.711865 0 13.002129 2.949168 17.712407 8.303106 4.626367 5.260817 7.175423 12.234649 7.175423 19.636223 0 15.405875-11.171434 27.939329-24.90318 27.939329L251.104503 211.562673c-13.731746 0-24.90318-12.533454-24.90318-27.939329C226.201324 168.217469 237.372757 155.684014 251.104503 155.684014z"  horiz-adv-x="1024" />

    
    <glyph glyph-name="riqi1" unicode="&#58929;" d="M841.492-60.258H182.508A114.53 114.53 0 0 0 68.135 54.114V630.705c0 63.094 51.2 114.373 114.373 114.373h658.984c63.094 0 114.373-51.279 114.373-114.373v-576.59c0-63.095-51.358-114.452-114.373-114.452zM182.508 680.96a50.412 50.412 0 0 1-50.412-50.412v-576.591c0-27.727 22.607-50.412 50.412-50.412h658.984a50.412 50.412 0 0 1 50.412 50.412V630.784a50.412 50.412 0 0 1-50.412 50.412H182.508v-0.078zM684.977 470.489H339.023a32.06 32.06 0 0 1-32.06-31.98c0-17.645 14.415-31.981 32.06-31.981h345.954a32.06 32.06 0 0 1 32.06 31.98 32.06 32.06 0 0 1-32.06 31.98z m0-207.4H339.023a32.06 32.06 0 0 1-32.06-31.98c0-17.644 14.415-31.98 32.06-31.98h345.954a32.06 32.06 0 0 1 32.06 31.98 32.06 32.06 0 0 1-32.06 31.98zM326.498 829.676a32.06 32.06 0 0 1-31.98-31.98v-140.997c0-17.565 14.415-31.98 31.98-31.98a32.06 32.06 0 0 1 31.98 31.98V797.696a32.06 32.06 0 0 1-31.98 31.98z m371.004 0a32.06 32.06 0 0 1-31.98-31.98v-140.997c0-17.565 14.414-31.98 31.98-31.98a32.06 32.06 0 0 1 31.98 31.98V797.696a32.06 32.06 0 0 1-31.98 31.98z"  horiz-adv-x="1024" />

    
    <glyph glyph-name="ziyuan" unicode="&#59274;" d="M618.429418 173.440037H104.139176A102.807653 102.807653 0 0 0 0.00863 277.570583V791.860825A102.807653 102.807653 0 0 0 104.139176 895.99137h514.290242a102.807653 102.807653 0 0 0 104.130545-104.130545V694.407737a39.056829 39.056829 0 0 0-78.113658 0V791.860825a27.969729 27.969729 0 0 1-26.016887 26.016887H104.139176a28.032724 28.032724 0 0 1-26.016888-26.016887v-514.290242a27.969729 27.969729 0 0 1 26.016888-26.016888h514.290242a27.906734 27.906734 0 0 1 26.016887 26.016888v97.642071a39.056829 39.056829 0 1 0 78.113658 0v-97.642071a102.807653 102.807653 0 0 0-104.130545-104.130546z m346.786842-301.430525H450.989013A102.807653 102.807653 0 0 0 346.795473-23.733953v97.579077a42.017588 42.017588 0 0 0 39.119824 39.056829 42.017588 42.017588 0 0 0 39.056828-39.056829V-23.733953a27.969729 27.969729 0 0 1 26.016888-26.016887h514.227247a28.032724 28.032724 0 0 1 26.079883 26.016887V490.430299a27.969729 27.969729 0 0 1-26.079883 26.016888H450.989013a27.906734 27.906734 0 0 1-26.016888-26.016888v-97.642072a42.017588 42.017588 0 0 0-39.056828-39.056828 42.017588 42.017588 0 0 0-39.119824 39.056828v97.642072a102.870647 102.870647 0 0 0 104.19354 104.19354h514.227247a102.870647 102.870647 0 0 0 104.19354-104.19354V-23.733953a102.807653 102.807653 0 0 0-104.19354-104.256535z"  horiz-adv-x="1069" />

    
    <glyph glyph-name="you" unicode="&#58928;" d="M747.372 423.219l-392.261 391.876c-21.655 21.657-56.784 21.657-78.442 0-21.711-21.654-21.711-56.731 0-78.386l352.987-352.687-352.987-352.74c-21.711-21.653-21.711-56.731 0-78.383 21.658-21.658 56.786-21.658 78.442 0l392.261 391.934c21.652 21.597 21.652 56.731 0 78.386z"  horiz-adv-x="1024" />

    
    <glyph glyph-name="qudaoshangxitongbeifen" unicode="&#59019;" d="M511.168 895.744C229.312 895.744 0 666.432 0 384.576s229.312-511.168 511.168-511.168 511.104 229.312 511.104 511.168S793.024 895.744 511.168 895.744z m0-949.312A438.592 438.592 0 0 0 72.96 384.64a438.592 438.592 0 0 0 438.144 438.144 438.592 438.592 0 0 0 438.08-438.144 438.592 438.592 0 0 0-438.08-438.144zM658.432 384.576a36.48 36.48 0 1 1 0 72.96h-110.72v17.28l135.232 141.376a36.288 36.288 0 1 1-52.352 50.368L514.688 544.64 391.936 667.2a36.48 36.48 0 0 1-51.648-0.064 36.48 36.48 0 0 1-0.64-51.648l135.04-135.36v-22.528h-108.16a36.48 36.48 0 0 1 0-73.024h108.16v-73.024h-108.16a36.48 36.48 0 1 1 0-73.024h108.16v-108.544a36.48 36.48 0 1 1 72.96 0v108.544h110.784a36.48 36.48 0 1 1 0 72.96h-110.72V384.64h110.72z"  horiz-adv-x="1024" />

    
    <glyph glyph-name="jiancha" unicode="&#58927;" d="M435.733 129.6H433.333l-92.8 2.4h-104.8c-15.2 0-27.2-12-27.2-27.2 0-12.8 8.8-23.2 20.8-26.4 0.8 0 1.6 0 2.4-0.8h107.2l96.8-2.4h3.2c13.6 1.6 24 12.8 24 27.2 0 15.2-12 27.2-27.2 27.2zM434.933 288h-199.2c-15.2 0-27.2-12-27.2-27.2 0-12.8 8.8-23.2 20.8-26.4 0.8 0 1.6 0 2.4-0.8h204c15.2 0 27.2 12 27.2 27.2s-12.8 27.2-28 27.2zM234.933 444h-0.8c-15.2 0-27.2-12-27.2-27.2s12-27.2 27.2-27.2h470.4c1.6 0 4 0 5.6 0.8 12.8 2.4 23.2 13.6 23.2 27.2 0 15.2-12 27.2-27.2 27.2H703.733l-468.8-0.8c0.8 0 0 0 0 0zM976.533-79.2l-84 84c23.2 32.8 36.8 72.8 36 116-2.4 100-84 182.4-184 185.6-110.4 3.2-200-86.4-196-196.8 3.2-100 85.6-181.6 185.6-184 43.2-0.8 83.2 12 116 36l84-84c5.6-5.6 16-5.6 21.6 0l21.6 21.6c5.6 5.6 5.6 15.2-0.8 21.6zM602.133 116c0 78.4 66.4 140.8 145.6 135.2 67.2-4.8 121.6-59.2 125.6-125.6 5.6-79.2-57.6-145.6-135.2-145.6-75.2 0-136 60.8-136 136zM534.933-73.6h-428.8V840h468.8v-208c0-26.4 19.2-48.8 44-54.4 3.2-0.8 10.4-0.8 10.4-0.8h207.2v-211.2h55.2V606.4c0.8 9.6-4 20.8-12.8 29.6l-1.6 1.6-152.8 148.8c-0.8 0-96.8 93.6-97.6 94.4-1.6 1.6-4 4-6.4 5.6-1.6 1.6-3.2 2.4-5.6 4-3.2 1.6-9.6 4.8-16 4.8h-492c-26.4 0-48.8-19.2-54.4-44-0.8-3.2-0.8-7.2-0.8-11.2v-912.8c0-26.4 19.2-48.8 44-53.6 3.2-0.8 7.2-0.8 11.2-0.8h428v53.6z m95.2 874.4l176.8-168.8h-176.8V800.8z"  horiz-adv-x="1025" />

    
    <glyph glyph-name="yonghuduan-tuantiyaoqing" unicode="&#58954;" d="M630.79 425.244c45.01 35.345 74.045 90.086 74.045 151.606 0 106.344-86.507 192.852-192.85 192.852-106.346 0-192.852-86.506-192.852-192.852 0-61.52 29.065-116.261 74.046-151.606-118.523-47.366-202.613-163.157-202.613-298.377v-64.283c0-17.767 14.377-32.142 32.144-32.142h578.55c17.767 0 32.142 14.375 32.142 32.142v64.283c0 135.252-84.058 251.011-202.612 298.377zM511.986 705.416c70.907 0 128.568-57.659 128.568-128.566s-57.661-128.567-128.568-128.567-128.57 57.66-128.57 128.567 57.662 128.567 128.57 128.567z m257.133-610.693H254.85v32.144C254.85 268.647 370.203 384 512.016 384c141.78 0 257.101-115.353 257.101-257.133v-32.143zM296.817 414.07c0.88 1.946 0.88 4.018 1.319 6.027 0.314 1.224 0.659 2.384 0.817 3.672 0.25 2.542 0.094 4.958-0.251 7.438-0.126 1.318 0.188 2.574-0.126 3.892-0.188 0.754-0.72 1.287-0.941 2.041-0.501 1.444-1.193 2.73-1.884 4.08-1.318 2.764-2.763 5.274-4.74 7.5-0.283 0.315-0.628 0.534-0.941 0.848a30.843 30.843 0 0 1-10.107 7.031c-34.779 15.506-57.253 50.034-57.253 88.076 0 44.761 30.32 83.305 73.761 93.758 17.264 4.175 27.873 21.533 23.73 38.796-4.207 17.265-21.628 27.748-38.797 23.73-72.413-17.451-122.98-81.735-122.98-156.284 0-40.68 15.475-78.815 41.779-107.818-83.648-43.347-138.201-130.04-138.201-228.13v-49.72c0-17.766 14.375-32.142 32.141-32.142s32.142 14.376 32.142 32.142v49.72c0 88.892 59.764 165.166 145.516 186.761 10.672 1.508 20.37 8.004 25.017 18.582z m526.824 22.79c26.303 29.001 41.776 67.139 41.776 107.817 0 72.601-48.902 136.445-118.93 155.247-17.106 4.584-34.747-5.555-39.393-22.694-4.614-17.17 5.556-34.779 22.695-39.392 41.996-11.269 71.346-49.594 71.346-93.163 0-38.042-22.444-72.508-57.19-88.043-3.892-1.696-7.313-4.05-10.264-7.126-0.25-0.283-0.566-0.471-0.816-0.754-2.01-2.227-3.453-4.803-4.803-7.596-0.659-1.35-1.38-2.605-1.85-4.017-0.22-0.722-0.755-1.288-0.943-2.041-0.313-1.319 0-2.575-0.125-3.894-0.346-2.478-0.5-4.895-0.25-7.437 0.157-1.288 0.5-2.448 0.816-3.672 0.438-2.01 0.438-4.08 1.318-6.027 4.646-10.578 14.344-17.076 25.014-18.582 85.754-21.597 145.518-97.868 145.518-186.761v-49.72c0-17.766 14.376-32.141 32.142-32.141s32.14 14.375 32.14 32.141v49.72c0.002 98.092-54.55 184.786-138.201 228.134z"  horiz-adv-x="1024" />

    
    <glyph glyph-name="gengduo" unicode="&#58961;" d="M118.528 504.512a118.528 118.528 0 1 1 0-237.056 118.528 118.528 0 0 1 0 237.056z m393.472 0a118.528 118.528 0 1 1 0-237.056 118.528 118.528 0 0 1 0 237.056z m393.472 0a118.528 118.528 0 1 1 0-237.056 118.528 118.528 0 0 1 0 237.056z"  horiz-adv-x="1024" />

    
    <glyph glyph-name="bangongshi1" unicode="&#58980;" d="M971.636364 366.545455c0 29.090909-23.272727 52.363636-52.363637 52.363636h-17.454545V669.090909c0 16.290909-12.8 29.090909-29.090909 29.090909s-29.090909-12.8-29.090909-29.090909V418.909091h-23.272728V599.272727c0 16.290909-12.8 29.090909-29.090909 29.090909s-29.090909-12.8-29.090909-29.090909V418.909091h-23.272727v98.909091c0 16.290909-12.8 29.090909-29.090909 29.090909s-29.090909-12.8-29.090909-29.090909V418.909091h-267.636364v69.818182H546.909091c29.090909 0 52.363636 23.272727 52.363636 52.363636v197.818182c0 29.090909-23.272727 52.363636-52.363636 52.363636H197.818182c-29.090909 0-52.363636-23.272727-52.363637-52.363636v-197.818182c0-29.090909 23.272727-52.363636 52.363637-52.363636h157.090909v-69.818182H104.727273c-29.090909 0-52.363636-23.272727-52.363637-52.363636V46.545455c0-41.890909 33.745455-75.636364 75.636364-75.636364h69.818182c41.890909 0 75.636364 33.745455 75.636363 75.636364V244.363636h337.454546v-197.818181c0-41.890909 33.745455-75.636364 75.636364-75.636364h209.454545c41.890909 0 75.636364 33.745455 75.636364 75.636364V290.909091v3.490909 72.145455zM203.636364 733.090909h337.454545v-186.181818h-337.454545V733.090909z m709.818181-436.363636V46.545455c0-9.309091-8.145455-17.454545-17.454545-17.454546H686.545455c-9.309091 0-17.454545 8.145455-17.454546 17.454546V302.545455h-453.818182v-256c0-9.309091-8.145455-17.454545-17.454545-17.454546h-69.818182c-9.309091 0-17.454545 8.145455-17.454545 17.454546V290.909091v69.818182h802.90909v-64z"  horiz-adv-x="1024" />

    
    <glyph glyph-name="kongzhiqibaobiao" unicode="&#59447;" d="M673.167183 248.261417c0.818627 0 1.534926 0 2.251224 0.102328h167.306885c19.033077 0.818627 34.280004 16.474868 34.280004 35.712602s-15.246927 34.996303-34.280004 35.712601H673.167183v-0.102329c-19.749375 0-35.81493-16.065554-35.81493-35.814929 0-19.544719 16.065554-35.610273 35.81493-35.610273zM842.725292 166.501049H671.427601v-0.102328c-19.749375 0-35.81493-16.065554-35.81493-35.81493s16.065554-35.81493 35.81493-35.814929c0.818627 0 1.534926 0 2.251224 0.102328H842.827621c19.033077 0.818627 34.280004 16.474868 34.280004 35.712601-0.102328 19.44239-15.349256 35.200959-34.382333 35.917258zM921.313481 530.278405H839.143799c1.432597 0 2.762866-0.102328 4.195464-0.204657H586.802039c-3.479165 0-6.958329-0.204657-10.335166-0.716298V805.951034c0 45.126811-36.735885 81.862696-81.862696 81.862696H412.434496c1.432597 0 2.762866-0.102328 4.195463-0.204656H98.798041c-45.126811 0-81.862696-36.735885-81.862696-81.862696v-844.209054c0-45.126811 36.735885-81.862696 81.862696-81.862696h260.835016v0.204657l426.606975 0.306985v0.204656h134.97112c45.126811 0 81.862696 36.735885 81.862696 81.862696v486.059759c0.102328 45.22914-36.633557 81.965024-81.760367 81.965024zM504.939342-38.155691c0-5.525732-4.707105-10.232837-10.232837-10.232837h-240.471669v-0.204657h-155.539123c-5.525732 0-10.232837 4.707105-10.232837 10.232837v844.209054c0 5.525732 4.707105 10.232837 10.232837 10.232837h333.078845c0.818627-0.102328 1.534926-0.102328 2.353552-0.102328s1.637254 0 2.353553 0.102328h7.776956c-0.716299 0.102328-1.432597 0.102328-2.148896 0.204657h52.699111c5.525732 0 10.232837-4.707105 10.232837-10.232837v-844.004397l-0.102329-0.204657z m426.709304 0.61397c0-5.525732-4.707105-10.232837-10.232837-10.232837h-209.773159v-0.204657h-124.840611c-5.525732 0-10.232837 4.707105-10.232837 10.232837v486.059759c0 5.525732 4.707105 10.232837 10.232837 10.232837h271.681822c0.818627-0.102328 1.534926-0.102328 2.353553-0.102329s1.637254 0 2.353552 0.102329h7.776956c-0.716299 0.102328-1.432597 0.102328-2.148895 0.204656h52.69911c5.525732 0 10.232837-4.707105 10.232837-10.232837l-0.102328-486.059758zM331.390427 600.782652V602.419906c-0.818627 19.033077-16.474868 34.280004-35.712601 34.280004s-34.996303-15.246927-35.712602-34.280004v-435.611872h0.102329c0-19.749375 16.065554-35.81493 35.814929-35.814929 19.544719 0 35.610273 16.065554 35.610273 35.814929 0 0.818627 0 1.534926-0.102328 2.251225V600.782652z"  horiz-adv-x="1024" />

    
    <glyph glyph-name="juecefenxianquanjianguan" unicode="&#59029;" d="M911.498918 752.154118c-11.977206 11.112119-27.713293 17.238048-44.018586 17.238048-1.49798 0-2.980038-0.061034-4.478018-0.149931-0.891623-0.067668-11.26205-0.674025-27.501002-0.674025-26.889337 0-79.386304 1.804475-129.126139 13.936919C642.139829 798.15232 567.987831 870.827568 546.421696 885.173147 535.60015 892.393703 523.077622 896 510.55642 896c-12.5013 0-25.002599-3.606297-35.850681-10.780414-2.627104-1.762017-80.235469-84.174798-156.144178-102.693227-49.719932-12.13377-103.23855-13.936919-130.08543-13.936919-16.285391 0-26.609378 0.611664-27.629703 0.674025-1.415717 0.08757-2.8248 0.155238-4.26042 0.155238-16.326522 0-32.155487-6.152465-44.153922-17.305715C99.366889 740.005753 91.934043 723.047664 91.934043 705.312059l0-160.302432C91.934043-47.695536 482.57909-124.01954 499.143113-126.978348c3.825223-0.674025 7.609314-1.021652 11.413307-1.021652 3.803993 0 7.691577 0.347627 11.413307 1.021652 16.606481 2.958809 410.096231 79.282812 410.096231 671.987976L932.065957 705.312059C932.064631 723.067567 924.586672 740.046884 911.498918 752.154118L911.498918 752.154118 911.498918 752.154118 911.498918 752.154118zM867.481659 544.989725c0-545.857797-356.945142-608.881755-356.945142-608.881755S156.45598-0.914511 156.45598 544.989725L156.45598 705.312059c0 0 12.237262-0.871721 31.998922-0.871721 33.865758 0 90.84605 2.477173 145.452661 15.823657 89.430333 21.762504 176.627627 111.608132 176.627627 111.608132s91.058341-89.845628 180.426314-111.608132c54.653049-13.346484 110.650168-15.823657 144.541135-15.823657 19.715221 0 31.97902 0.871721 31.97902 0.871721L867.481659 544.989725 867.481659 544.989725 867.481659 544.989725 867.481659 544.989725zM711.310945 578.201361 461.142983 329.841854l-124.084222 123.192599c-15.392441 15.299563-40.410962 15.299563-55.803403 0-15.38846-15.3261-15.38846-40.1111 0-55.390761l144.757407-143.715853c1.694349-2.892468 3.784091-5.67481 6.281167-8.173212 7.935711-7.868044 18.457395-11.697247 28.868953-11.413307 10.412885-0.285266 20.913339 3.566493 28.847724 11.413307 2.524939 2.498402 4.608046 5.260842 6.302396 8.173212l270.822571 268.884087c15.41367 15.283641 15.41367 40.089871 0 55.389435C751.721907 593.506231 726.724615 593.506231 711.310945 578.201361L711.310945 578.201361 711.310945 578.201361 711.310945 578.201361zM711.310945 578.201361"  horiz-adv-x="1024" />

    
    <glyph glyph-name="peisefangan" unicode="&#59011;" d="M546.133333 454.519467A186.5728 186.5728 0 1 1 546.133333 827.733333a186.5728 186.5728 0 0 1 0-373.213866z m0-68.266667A254.839467 254.839467 0 1 0 546.133333 896a254.839467 254.839467 0 0 0 0-509.7472zM254.839467-55.159467a186.5728 186.5728 0 1 1 0 373.1456 186.5728 186.5728 0 0 1 0-373.1456z m0-68.266666a254.839467 254.839467 0 1 0 0 509.678933 254.839467 254.839467 0 0 0 0-509.678933zM837.4272-55.159467a186.5728 186.5728 0 1 1 0 373.1456 186.5728 186.5728 0 0 1 0-373.1456z m0-68.266666a254.839467 254.839467 0 1 0 0 509.678933 254.839467 254.839467 0 0 0 0-509.678933z"  horiz-adv-x="1092" />

    
    <glyph glyph-name="dingdantongji" unicode="&#58916;" d="M252.672 144.896h518.656c19.968 0 36.096-16.128 36.096-36.096s-16.128-36.096-36.096-36.096H252.672c-19.968 0-36.096 16.128-36.096 36.096s16.128 36.096 36.096 36.096z m427.52 147.712c19.968 0 36.096-16.128 36.096-36.096v-37.632c0-19.968-16.128-36.096-36.096-36.096s-36.096 16.128-36.096 36.096v37.632c0 19.968 16.128 36.096 36.096 36.096zM570.112 440.32c19.968 0 36.096-16.128 36.096-36.096V218.88c0-19.968-16.128-36.096-36.096-36.096s-36.096 16.128-36.096 36.096V404.224c0 19.968 16.128 36.096 36.096 36.096z m-110.08-110.08c19.968 0 36.096-16.128 36.096-36.096v-75.52c0-19.968-16.128-36.096-36.096-36.096s-36.096 16.128-36.096 36.096v75.52c0 19.968 16.128 36.096 36.096 36.096zM350.208 550.4c19.968 0 36.096-16.128 36.096-36.096V218.88c0-19.968-16.128-36.096-36.096-36.096s-36.096 16.128-36.096 36.096V514.048c-0.256 19.968 16.128 36.352 36.096 36.352z m-36.352 0M917.504 553.728V657.664L679.424 895.744h-96.512L582.656 896v-0.256H140.288c-18.688 0-33.792-15.104-33.792-33.792v-956.16c0-18.688 15.104-33.792 33.792-33.792h743.424c18.688 0 33.792 15.104 33.792 33.792V553.728z m-67.328 70.4v-3.072H660.992c-6.144 0-11.008 4.864-11.008 11.008V824.32l200.192-200.192z m0-674.304c-0.256-5.888-4.864-10.752-11.008-10.752H184.832c-6.144 0-11.008 4.864-11.008 11.008V817.408c0 6.144 4.864 11.008 11.008 11.008h397.824V587.52c0-18.688 15.104-33.792 33.792-33.792h233.728v-603.904z"  horiz-adv-x="1024" />

    
    <glyph glyph-name="fangwuweixiuqingkuang" unicode="&#58921;" d="M488.36 547.85a249.41 249.41 0 0 1-64.59 238.24c-47.27 46.78-109.6 72.54-175.5 72.54a250.55 250.55 0 0 1-76.48-11.78l-0.3-0.1c-12-4.23-21-14.18-23.63-26a36.33 36.33 0 0 1 9.55-33.75L259 684.47l0.22-0.21a38.47 38.47 0 0 0 11.48-27.88 39 39 0 0 0-11.7-28.07l-29-29-0.18-0.18a38.47 38.47 0 0 0-27.87-11.48 38.94 38.94 0 0 0-28.07 11.68l-102 102A36.37 36.37 0 0 1 38 710.92a35.52 35.52 0 0 1-26-23.83v-0.13c-28.37-89-5.24-185.44 60.38-251.56 47.27-46.77 109.59-72.53 175.5-72.53a252.67 252.67 0 0 1 62.64 8.06l440-440c23.4-23.89 55-37.05 89-37.05a129.76 129.76 0 0 1 88.78 35.91l0.21 0.2c48.77 49.28 48.75 129.06 0 177.85zM311 577.68c21.18 20.69 32.84 48.81 32.84 79.17A111.2 111.2 0 0 1 311 736l-50.07 50a175.89 175.89 0 0 0 153.2-235.82v-0.11c-4.8-13.74-1.7-27.91 8.29-37.91L877.8 56.78a53.13 53.13 0 0 0 0.11-75.22l-0.11-0.11a54.27 54.27 0 0 0-75.79 0L346.58 436.87a35.78 35.78 0 0 1-25.76 10.79 37.87 37.87 0 0 1-12-2l-0.27-0.09A176 176 0 0 0 72.63 598.81l51.11-50.09c20.68-21.16 48.78-32.81 79.13-32.81a111.17 111.17 0 0 1 79.13 32.8zM426.84 161.56a35.92 35.92 0 0 1-25.53-10.67l-169-169A53.27 53.27 0 1 0 157 57.24l169 169a36.1 36.1 0 0 1-51.05 51.05l-169-169c-48.8-49.29-48.78-129.1 0.05-177.9l0.08-0.07a126.39 126.39 0 0 1 88.86-36.46c33.65 0 65.94 13.52 88.55 37.08l168.9 168.89a36.2 36.2 0 0 1-25.52 61.73zM1007 645.63L795.46 857.2a58 58 0 0 1-81.94 0L599.77 743.46a57.89 57.89 0 0 1 0-81.94l29.94-29.94-48.2-48.19a36.1 36.1 0 1 1 51.05-51.05l73.49 73.49a36.12 36.12 0 0 1 0 51.51l-45.39 45.39 93.59 93.57 195.38-195.38L902.41 460 832 530.49a35.86 35.86 0 0 1-51.05 0L707.43 457a36.1 36.1 0 0 1 51.05-51.05l48.19 48.2 61.3-61.3A57.81 57.81 0 0 1 909.18 376a56.5 56.5 0 0 1 41.3 17.44 54.79 54.79 0 0 1 15 26.37L1021 586.35a57.59 57.59 0 0 1-14 59.28z"  horiz-adv-x="1024" />

    
    <glyph glyph-name="danweigailan" unicode="&#58923;" d="M999.382 653.264l-95.796 28.48C885.464 782.718 802.612 850.034 699.049 850.034c-100.974 0-183.824-64.727-204.537-160.523L349.524 648.086c-5.178-2.59-10.356-2.59-12.945-2.59-5.179 0-10.357 0-15.535 2.59L67.314 720.58c-5.177 2.589-10.356 2.589-15.534 2.589-28.48 0-51.781-23.302-51.781-51.782v-611.022c0-23.301 15.534-44.014 36.247-49.192l284.798-88.029c5.178-2.589 10.356-2.589 15.535-2.589 5.178 0 10.356 0 12.945 2.59L683.514 18.94c5.18 2.59 10.357 2.59 12.946 2.59 5.178 0 10.357 0 15.535-2.59l253.73-77.672c5.177-2.59 10.356-2.59 15.534-2.59 28.48 0 51.781 23.303 51.781 51.782V604.072c2.59 23.301-12.945 44.014-33.658 49.192z m-662.803-62.138v-618.79l-284.799 88.03V671.386l256.319-75.083c10.356-2.589 18.123-2.589 28.48-5.178 0 2.59 0 2.59 0 0 0 2.59 0 0 0 0z m362.47 207.126c88.029 0 155.345-64.727 155.345-150.166 0-33.658-12.945-69.905-38.836-106.152-33.658-46.604-80.262-116.509-116.509-170.88-36.247 51.782-82.85 124.276-116.508 170.88-25.89 36.247-38.836 72.494-38.836 106.152 0 85.44 67.316 150.166 155.344 150.166z m284.799-810.38l-253.73 77.672h-5.178V226.066c0 15.535-10.356 25.891-25.89 25.891s-25.891-10.356-25.891-25.89v-160.523h-5.179l-279.62-77.673V591.126c0 5.178-2.589 7.767-2.589 12.946l108.741 31.068c2.59-46.603 23.302-85.44 46.604-121.686 31.069-44.014 80.261-116.509 116.508-168.29 10.356-15.535 25.89-23.302 44.014-23.302s33.658 7.767 44.015 23.302c33.658 51.781 82.85 124.276 116.508 168.29 23.302 33.658 44.014 72.494 46.604 116.508l77.672-23.301v-618.79zM699.049 565.234c44.015 0 77.673 33.658 77.673 77.673s-33.658 77.672-77.673 77.672-77.672-33.658-77.672-77.672 33.658-77.673 77.672-77.673z m0 103.563c15.535 0 25.891-10.356 25.891-25.89s-10.356-25.891-25.89-25.891-25.891 10.356-25.891 25.89 10.356 25.891 25.89 25.891z"  horiz-adv-x="1033" />

    
    <glyph glyph-name="yuanlagailan" unicode="&#58924;" d="M121.344-33.024h-69.12v832c0 38.4 30.976 69.376 69.376 69.376h416c38.4 0 69.376-30.976 69.376-69.376v-832H537.6v832H121.344v-832z m762.88 450.56H953.6v-450.56h-69.376v450.56zM34.816-102.39999999999998c-12.288 0-23.808 6.656-29.952 17.408-6.144 10.752-6.144 24.064 0 34.56 6.144 10.752 17.664 17.408 29.952 17.408H953.6c12.288 0 23.808-6.656 29.952-17.408 6.144-10.752 6.144-24.064 0-34.56-6.144-10.752-17.664-17.408-29.952-17.408H34.816z m0 0M1000.96 415.232c11.52-4.352 19.968-14.848 21.76-27.136 1.792-12.288-2.816-24.576-12.544-32.512-9.728-7.68-22.784-9.728-34.304-5.12l-416.256 162.56c-17.92 6.912-26.624 27.136-19.712 44.8 6.912 17.92 27.136 26.624 44.8 19.712l416.256-162.304zM711.168 302.84799999999996c12.288 0 23.808-6.656 29.952-17.408 6.144-10.752 6.144-24.064 0-34.56-6.144-10.752-17.664-17.408-29.952-17.408H571.904c-12.288 0-23.808 6.656-29.952 17.408-6.144 10.752-6.144 24.064 0 34.56 6.144 10.752 17.664 17.408 29.952 17.408h139.264z m0-138.752c12.288 0 23.808-6.656 29.952-17.408 6.144-10.752 6.144-24.064 0-34.56-6.144-10.752-17.664-17.408-29.952-17.408H571.904c-12.288 0-23.808 6.656-29.952 17.408-6.144 10.752-6.144 24.064 0 34.56 6.144 10.752 17.664 17.408 29.952 17.408h139.264zM294.912 313.6c0-19.2-15.616-34.56-34.56-34.56-19.2 0-34.56 15.616-34.56 34.56v69.376c0 19.2 15.616 34.56 34.56 34.56 19.2 0 34.56-15.616 34.56-34.56V313.6z m0 242.688c0-19.2-15.616-34.56-34.56-34.56-19.2 0-34.56 15.616-34.56 34.56v69.376c0 19.2 15.616 34.56 34.56 34.56 19.2 0 34.56-15.616 34.56-34.56v-69.376z m138.496 0c0-19.2-15.616-34.56-34.56-34.56-19.2 0-34.56 15.616-34.56 34.56v69.376c0 19.2 15.616 34.56 34.56 34.56 19.2 0 34.56-15.616 34.56-34.56v-69.376z m0-242.688c0-19.2-15.616-34.56-34.56-34.56-19.2 0-34.56 15.616-34.56 34.56v69.376c0 19.2 15.616 34.56 34.56 34.56 19.2 0 34.56-15.616 34.56-34.56V313.6z m-60.416-348.16c0-24.064 15.616-43.776 34.56-43.776 19.2 0 34.56 19.456 34.56 43.776V141.05600000000004c0 24.064-15.616 43.776-34.56 43.776-19.2 0-34.56-19.456-34.56-43.776V-34.559999999999945z m0 0M250.112 184.832c-20.992 0-38.144-15.616-38.144-34.56 0-19.2 17.152-34.56 38.144-34.56h153.344c20.992 0 38.144 15.616 38.144 34.56 0 19.2-17.152 34.56-38.144 34.56H250.112z m0 0M210.432-35.327999999999975c0-24.064 15.616-43.776 34.56-43.776 19.2 0 34.56 19.456 34.56 43.776V140.288c0 24.064-15.616 43.776-34.56 43.776-19.2 0-34.56-19.456-34.56-43.776v-175.616z m0 0"  horiz-adv-x="1603" />

    
    <glyph glyph-name="mianjiheding" unicode="&#58925;" d="M613.99 550.892l-76.783 76.784-38.393-38.417 76.809-76.783 38.366 38.416z m95.992 57.576l-95.993 95.992-38.366-38.416 95.99-95.942 38.369 38.366z m-249.558-211.19l-76.784 76.831-38.416-38.416 76.807-76.782 38.393 38.366z m95.991 57.623l-95.991 95.991-38.393-38.416L518 416.485l38.416 38.416z m400.876-424.923l-76.539 242.52c-7.282 23.069-28.103 38.074-52.834 38.074H715.602v-26.93h64.613c21.701 0 39.98-12.708 46.384-32.21l39.54-178.297c9.58-29.325-13.735-58.992-46.383-58.992H204.61c-32.649 0-55.963 29.667-46.36 58.992l39.517 178.298c0.073 0.243 0.17 0.44 0.244 0.683l1.784 4.449c0.024 0.049 0.024 0.098 0.049 0.098h-0.88v18.11l203.859-203.837c10.607-10.606 27.786-10.606 38.392 0l460.748 460.749c10.607 10.605 10.607 27.81 0 38.416L671.613 800.45c-10.654 10.606-27.81 10.606-38.415 0L172.449 339.702c-9.689-9.69-10.52-24.88-2.508-35.523-12.375-6.485-21.89-17.555-26.329-31.632L67.098 29.978c-5.352-16.91-2.42-33.626 8.357-47.85 10.777-14.27 26.295-21.895 44.452-21.895h784.549c18.182 0 33.675 7.624 44.477 21.895 10.754 14.224 13.686 30.94 8.358 47.85zM249.233 339.702l19.208 19.209L633.2 723.668c10.605 10.606 27.761 10.606 38.416 0L825.18 570.102c10.606-10.606 10.606-27.81 0-38.416L441.216 147.72c-10.606-10.606-27.785-10.606-38.392 0L249.233 301.285c-10.607 10.607-10.607 27.81 0 38.417z m153.59-38.417l-95.991 95.992-38.392-38.366 95.992-95.993 38.39 38.367z"  horiz-adv-x="1024" />

    
    <glyph glyph-name="quanshudengji" unicode="&#58926;" d="M730.667 581.972c-0.068 2.69-0.872 5.224-1.578 7.827-0.46 1.677-0.583 3.45-1.29 5.014-0.78 1.764-2.153 3.21-3.257 4.84-1.393 2.057-2.62 4.177-4.424 5.874-0.247 0.227-0.329 0.543-0.576 0.762L475.123 823.628c-1.235 1.104-2.771 1.515-4.116 2.404-2.07 1.38-4.026 2.834-6.386 3.728-2.216 0.84-4.492 1.023-6.812 1.376-1.722 0.275-3.279 1.025-5.076 1.025H138.732c-45.163 0-81.875-39.072-81.875-87.088v-722.144c0-48.016 36.712-87.088 81.875-87.088H648.97c45.162 0 81.874 39.072 81.874 87.088V581.102c0 0.308-0.164 0.565-0.178 0.87z m-257.082 174.33L640.631 607.76l-151.035-1.7c-7.582 0-16.01 8.718-16.01 21.232V756.302z m205.216-747.977c-0.001-12.047-8.062-20.44-15.31-20.44H124.322c-7.249 0-15.308 8.391-15.308 20.44v751.35c0 12.047 8.06 20.44 15.308 20.44h296.202V644.6c0-49.959 38.793-90.61 86.517-90.61h171.76v-545.664zM584.052 239.507H203.65c-18.602 0-33.693-11.645-33.693-26.023 0-14.376 15.09-26.022 33.693-26.022h380.402c18.603 0 33.693 11.645 33.693 26.022 0.001 14.378-15.09 26.023-33.693 26.023zM169.956 422.728c0-14.376 15.09-26.023 33.693-26.023h380.402c18.603 0 33.693 11.646 33.693 26.023s-15.09 26.023-33.693 26.023h-380.4c-18.604 0-33.695-11.646-33.695-26.023zM933.45 832.16h-111.4c-18.603 0-33.694-15.09-33.694-33.722v-693.412c-0.63-5.656 0.028-11.434 2.305-16.85l55.48-131.429a33.716 33.716 0 0 1 31.059-20.605 33.718 33.718 0 0 1 31.059 20.605l55.48 131.428c0.459 1.094 0.185 2.284 0.521 3.406 1.812 4.136 2.882 8.663 2.882 13.469V798.438c0.001 18.631-15.09 33.722-33.692 33.722z m-18.351-711.661h-74.926V780.116H915.1v-659.617z"  horiz-adv-x="1024" />

    
    <glyph glyph-name="xiugaimima" unicode="&#59009;" d="M814.4 520h-64v84.8c0 140.8-115.2 254.4-254.4 254.4S240 745.6 240 604.8V520h-64c-35.2 0-64-28.8-64-64v-467.2c0-35.2 28.8-64 64-64h638.4c35.2 0 64 28.8 64 64V456c0 35.2-28.8 64-64 64zM304 604.8c0 105.6 86.4 192 192 192s192-86.4 192-192V520H304v84.8z m510.4-616H177.6V456H816v-467.2h-1.6zM496 105.6c17.6 0 32 14.4 32 32V307.2c0 17.6-14.4 32-32 32s-32-14.4-32-32v-169.6c0-17.6 14.4-32 32-32z"  horiz-adv-x="1024" />

    
    <glyph glyph-name="zhiyuanzhe" unicode="&#58969;" d="M72.457481-109.037037a33.678222 33.678222 0 0 0-33.621333 33.583407c0 116.015407 45.037037 224.900741 127.127704 306.953482a433.114074 433.114074 0 0 0 157.316741 100.617481 292.939852 292.939852 0 0 0-97.46963 94.90963 289.810963 289.810963 0 0 0-45.586963 156.48237c0 161.298963 131.090963 292.693333 292.67437 292.693334 78.089481 0 151.627852-30.492444 206.885926-85.769482a290.702222 290.702222 0 0 0 85.807408-206.923852c0-161.317926-131.39437-292.712296-292.712297-292.712296-3.413333 0-6.826667 0-10.827851 0.284444a363.937185 363.937185 0 0 1-248.225186-107.14074 363.899259 363.899259 0 0 1-107.747555-259.356445c0-18.564741-15.056593-33.60237-33.621334-33.621333z m400.156445 467.399111c1.422222 0 2.844444 0 4.551111-0.32237 121.704296 2.275556 220.880593 103.480889 220.880593 225.469629 0 124.245333-101.148444 225.431704-225.431704 225.431704-124.245333 0-225.431704-101.18637-225.431704-225.431704-0.132741-120.452741 94.568296-219.666963 214.888297-225.147259h10.543407zM751.085037-102.513778c-9.159111 0-17.692444 2.844444-25.106963 8.571259-4.589037 3.697778-114.574222 88.917333-158.72 158.416593-15.947852 25.088-35.669333 56.168296-35.669333 102.039704 0 78.127407 58.709333 141.672296 130.844444 141.672296 33.033481 0 64.398222-13.084444 88.651852-37.357037a124.378074 124.378074 0 0 0 88.613926 37.357037c72.059259 0 130.806519-63.563852 130.806518-141.672296 0-45.89037-19.626667-76.951704-35.631407-102.020741-44.449185-69.82163-154.206815-154.737778-158.738963-158.435556a40.277333 40.277333 0 0 0-25.050074-8.571259zM662.433185 246.328889c-39.61363 0-71.547259-35.915852-71.547259-79.815111 0-25.353481 11.112296-45.037037 25.960296-67.830519 31.649185-49.569185 108.847407-114.289778 134.485334-134.826666 25.391407 20.536889 102.627556 84.954074 134.523259 134.826666 14.563556 23.077926 25.941333 42.458074 25.941333 67.830519 0 44.183704-32.199111 79.834074-71.528296 79.834074-27.932444 0-53.57037-18.526815-65.270519-47.047111l-4.854518-10.543408h-2.844445a24.405333 24.405333 0 0 0-16.213333-5.973333 25.258667 25.258667 0 0 0-17.104593 6.84563l-2.048-0.568889-4.22874 9.974518c-11.700148 28.785778-37.376 47.29363-65.270519 47.29363z"  horiz-adv-x="1024" />

    
    <glyph glyph-name="zhengwugongkai" unicode="&#59013;" d="M767.144 608.275c0-17.708-14.355-32.063-32.063-32.063H287.554c-17.708 0-32.063 14.355-32.063 32.063 0 17.708 14.355 32.063 32.063 32.063H735.08c17.708 0 32.064-14.355 32.064-32.063z m0-191.699c0-17.708-14.355-32.063-32.063-32.063H287.554c-17.708 0-32.063 14.355-32.063 32.063 0 17.708 14.355 32.063 32.063 32.063H735.08c17.708 0 32.064-14.356 32.064-32.063zM511.85 224.194c0-17.708-14.355-32.063-32.064-32.063H287.554c-17.708 0-32.063 14.355-32.063 32.063 0 17.709 14.355 32.064 32.063 32.064h192.231c17.709 0 32.065-14.356 32.065-32.064z m377.41-90.744l-71.568 130.658a43.285 43.285 0 0 1-37.975 22.498h-152.31c-14.972 0-29.125-7.934-36.938-20.705L509.9 134.187a43.27 43.27 0 0 1-0.562-44.244l75.797-131.284c7.71-13.354 22.08-21.65 37.499-21.65h152.244c15.418 0 29.788 8.296 37.5 21.65l76.406 132.34c7.511 13.011 7.694 29.277 0.476 42.452z m-70.999-27.946c0-65.708-53.457-119.165-119.165-119.165s-119.165 53.457-119.165 119.165S633.39 224.67 699.096 224.67s119.165-53.457 119.165-119.165zM895.258 385.827V758.942c0 39.498-32.133 71.632-71.632 71.632H199.41c-39.498 0-71.632-32.134-71.632-71.632v-749.149c0-39.497 32.134-71.631 71.632-71.631h215.589v0.103h1.983c16.92 0 30.636 13.716 30.636 30.636s-13.716 30.636-30.636 30.636h-1.983v0.024h-215.59c-5.642 0-10.232 4.59-10.232 10.233V758.942c0 5.643 4.59 10.234 10.233 10.234h624.216c5.643 0 10.233-4.591 10.233-10.234v-372.879a31.292 31.292 0 0 1-0.072-2.016v-33.002c0-16.99 13.772-30.762 30.762-30.762 16.99 0 30.763 13.772 30.763 30.762v33.002c0.001 0.598-0.02 1.19-0.054 1.78z"  horiz-adv-x="1024" />

    
    <glyph glyph-name="zazhiqikan" unicode="&#58914;" d="M720.63636348 285.81818174H297.22727305c-12.27272695 0-20.45454521 8.18181826-20.4545461 20.45454521s8.18181826 20.45454521 20.4545461 20.4545461h425.45454521c12.27272695 0 20.45454521-8.18181826 20.45454521-20.4545461-2.04545479-10.22727305-10.22727305-20.45454521-22.5-20.45454521zM720.63636348 122.18181826H297.22727305c-12.27272695 0-20.45454521 8.18181826-20.4545461 20.45454521s8.18181826 20.45454521 20.4545461 20.45454522h425.45454521c12.27272695 0 20.45454521-8.18181826 20.45454521-20.45454522-2.04545479-10.22727305-10.22727305-20.45454521-22.5-20.45454521zM837.22727305 793.09090869C859.72727305 793.09090869 880.18181826 772.63636348 880.18181826 750.13636348v-730.22727217c0-24.54545479-20.45454521-42.95454521-42.95454521-42.9545461h-654.54545479c-24.54545479 0-42.95454521 20.45454521-42.95454521 42.9545461V750.13636348C137.68181826 772.63636348 158.13636348 793.09090869 182.68181826 793.09090869h654.54545479m0 40.90909131h-654.54545479C135.63636347 834 96.77272695 797.18181826 96.77272695 750.13636348v-730.22727217c0-47.04545479 36.81818174-83.86363653 83.86363653-83.86363652h654.54545478c47.04545479 0 83.86363653 36.81818174 83.86363653 83.86363652V750.13636348c2.04545479 47.04545479-36.81818174 83.86363653-81.81818174 83.86363652zM636.77272695 500.59090869c-4.09090869 0-8.18181826 0-12.27272695 2.04545479-10.22727305 4.09090869-18.40909131 16.36363653-18.40909131 28.63636347V793.09090869c0 12.27272695 8.18181826 20.45454521 20.4545461 20.4545461s20.45454521-8.18181826 20.45454521-20.4545461v-222.95454521c0-6.13636347 6.13636347-8.18181826 10.22727305-4.09090869l30.68181826 28.63636347c12.27272695 12.27272695 30.68181826 12.27272695 42.95454521 0l30.68181827-28.63636347c4.09090869-4.09090869 10.22727305 0 10.22727216 4.09090869V793.09090869c0 12.27272695 8.18181826 20.45454521 20.4545461 20.4545461s20.45454521-8.18181826 20.45454521-20.4545461v-263.86363564c0-12.27272695-8.18181826-22.5-18.40909131-28.63636436-12.27272695-4.09090869-24.54545479-2.04545479-32.72727216 6.13636436l-47.04545479 45c-2.04545479 2.04545479-6.13636347 2.04545479-8.18181826 0L659.27272695 506.72727305c-6.13636347-4.09090869-14.31818174-6.13636347-22.5-6.13636436z"  horiz-adv-x="1024" />

    
    <glyph glyph-name="huiyi1" unicode="&#58915;" d="M544.256 298.496h15.872c8.704 0 15.872-7.168 15.872-15.872v-256c0-8.704-7.168-15.872-15.872-15.872h-15.872c-8.704 0-15.872 7.168-15.872 15.872v256c0 8.704 7.168 15.872 15.872 15.872z m-79.872 0h15.872c8.704 0 15.872-7.168 15.872-15.872v-256c0-8.704-7.168-15.872-15.872-15.872h-15.872c-8.704 0-15.872 7.168-15.872 15.872v256c0 8.704 7.168 15.872 15.872 15.872zM96.768 762.368c-17.92 0-31.744-14.336-31.744-31.744 0-17.408 14.336-31.744 31.744-31.744 17.92 0 31.744 14.336 31.744 31.744 0 17.408-14.336 31.744-31.744 31.744z m0-112.128c-44.032 0-79.872 35.84-79.872 79.872s35.84 79.872 79.872 79.872 79.872-35.84 79.872-79.872S140.8 650.24 96.768 650.24z m223.744-479.744L144.384 266.24V538.112s-4.608 31.744-48.128 31.744c-39.424 0-48.128-31.744-48.128-31.744v-240.128s-2.56-25.088 15.872-31.744l240.128-112.128v-192h15.872l0.512 208.384z m48.128-15.872v-192s-3.584-51.2-64-48.128c-46.08 2.56-48.128 48.128-48.128 48.128V122.88L48.64 218.624S1.536 236.544 0.512 282.624V554.496s22.016 62.976 95.744 64c76.8 1.024 95.744-64 95.744-64v-256l143.872-79.872c0.512 0 31.232-11.264 32.768-64z m143.872 655.872c-17.92 0-31.744-14.336-31.744-31.744 0-17.408 14.336-31.744 31.744-31.744 17.408 0 31.744 14.336 31.744 31.744s-14.336 31.744-31.744 31.744z m0-111.616c-44.032 0-79.872 35.84-79.872 79.872s35.84 79.36 79.872 79.36 79.872-35.84 79.872-79.36c0-44.544-35.84-79.872-79.872-79.872z m64-111.616s-2.56 32.768-64 31.744c-66.048-1.024-64-31.744-64-31.744V394.24h128V587.264z m175.616-241.152H272.384s-15.872 2.56-15.872 22.016c0 24.064 15.872 26.112 15.872 26.112h128V603.136s-0.512 62.976 112.128 63.488c103.424 0.512 112.128-63.488 112.128-63.488V394.24h128s15.872-6.144 15.872-23.552c-0.512-15.872-16.384-24.576-16.384-24.576z m176.128 416.256c-17.92 0-31.744-14.336-31.744-31.744 0-17.408 14.336-31.744 31.744-31.744s31.744 14.336 31.744 31.744c0 17.408-14.336 31.744-31.744 31.744z m0-111.616c-44.032 0-79.872 35.84-79.872 79.36s35.84 79.36 79.872 79.36 79.872-35.84 79.872-79.36-35.84-79.36-79.872-79.36z m47.616-350.208V539.136s-8.704 31.744-48.128 31.744c-43.52 0-48.128-31.744-48.128-31.744v-270.848l-176.128-95.744v-207.36h15.872v190.976l240.128 111.616c18.944 7.68 16.384 32.768 16.384 32.768z m48.128-15.872c-0.512-46.08-48.128-63.488-48.128-63.488L768 125.44v-159.232s-1.536-45.056-48.128-47.616c-60.416-3.584-64 47.616-64 47.616v190.976c1.024 52.736 31.744 63.488 31.744 63.488l143.872 79.36V555.52s19.456 64.512 95.744 63.488c73.728-1.024 95.744-63.488 95.744-63.488s1.024-268.8 1.024-270.848z"  horiz-adv-x="1024" />

    
    <glyph glyph-name="huiyishiguanli" unicode="&#58906;" d="M963.584 775.68h-180.736c-33.28 0-60.416-27.136-60.416-60.416v-662.528c0-33.28 27.136-60.416 60.416-60.416h180.736c33.28 0 60.416 27.136 60.416 60.416V715.264c0 33.28-27.136 60.416-60.416 60.416z m-180.736-722.944V715.264h180.736v-662.528h-180.736z m-199.68 812.032L53.248 760.32C22.528 754.688 0 727.552 0 695.808v-650.24c0-32.256 24.576-60.416 56.832-64.512l529.92-77.824c3.072-0.512 6.144-1.024 9.728-1.024 15.872 0 31.232 5.632 43.52 16.384 14.336 12.288 22.528 30.208 22.528 49.152V800.256c0 19.456-8.704 37.888-23.552 50.688-15.872 12.288-35.84 17.408-55.808 13.824z m18.944-897.024c0-1.536-0.512-2.56-2.048-4.096-1.024-0.512-2.56-2.048-5.12-1.536L65.536 40.448c-3.072 0.512-5.12 2.56-5.12 5.12v650.24c0 2.56 2.048 4.608 4.608 5.12l529.92 104.448h1.024c2.048 0 3.072-1.024 4.096-1.536 1.024-1.024 2.048-2.56 2.048-4.096v-832zM512 504.32c-16.384 0-30.208-13.312-30.208-30.208v-180.736c0-16.384 13.312-30.208 30.208-30.208s30.208 13.312 30.208 30.208V474.112c0 16.896-13.824 30.208-30.208 30.208z"  horiz-adv-x="1024" />

    
    <glyph glyph-name="tijiao" unicode="&#58912;" d="M513.194 830.576c-246.188 0-445.764-199.575-445.764-445.767 0-246.188 199.576-445.764 445.764-445.764 246.202 0 445.778 199.576 445.778 445.764 0 246.193-199.576 445.767-445.778 445.767z m-0.588-816.352c-205.157 0-371.472 166.315-371.472 371.466 0 205.157 166.315 371.472 371.472 371.472 205.166 0 371.481-166.315 371.481-371.472-0.004-205.151-166.315-371.466-371.481-371.466z m0 0M722.651 560.498c-11.43 0-21.655-5.147-28.506-13.241l-248.06-248.039L330.862 414.44l-0.034-0.034c-6.811 7.119-16.395 11.554-27.017 11.554-20.651 0-37.392-16.737-37.392-37.392 0-10.758 4.55-20.451 11.828-27.271l114.959-114.959-0.115-0.11 24.499-24.499c6.85-7.731 16.842-12.606 27.983-12.606 10.589 0 20.148 4.406 26.947 11.48h0.051l273.573 273.554c8.438 6.845 13.839 17.294 13.839 29.008 0 20.621-16.712 37.333-37.332 37.333z m0 0"  horiz-adv-x="1024" />

    
    <glyph glyph-name="shujushangbao" unicode="&#58910;" d="M818.38 690.688c-15.308 9.626-33.433 0.256-46.898-15.565l-197.479-197.12-156.057 121.549c-17.204 11.93-23.91 18.432-38.759 15.206a29.645 29.645 0 0 1-8.038-2.508c-0.512-0.308-1.178-0.256-1.792-0.564-0.512-0.256-0.768-0.819-1.331-1.126a31.232 31.232 0 0 1-6.247-5.171 32.051 32.051 0 0 1-4.813-5.94c-0.307-0.511-0.768-0.819-1.024-1.33L196.096 389.221c-8.858-16.896-3.584-38.4 11.674-48.128 15.308-9.728 30.924-4.044 43.673 12.903l140.954 184.217 147.865-116.736c8.039-7.219 14.644-12.544 20.48-16.64 13.261-9.472 27.597-3.686 42.343 11.879l223.744 223.437c17.1 18.892 6.81 40.908-8.448 50.534zM990.977 895.437H31.949C14.285 895.437 0 879.77 0 860.518c0-19.353 14.336-34.97 31.949-34.97h31.949v-629.094c0-38.656 28.672-69.939 64-69.939h276.07l-79.565-160.153a32.102 32.102 0 0 1 13.005-45.415c16.998-9.113 38.707-3.686 48.538 12.186l88.78 178.79a30.72 30.72 0 0 1 4.352 14.592h64.768c0.308-5.017 1.536-9.933 4.352-14.592l88.781-178.79c9.83-15.872 31.54-21.3 48.538-12.186a32.102 32.102 0 0 1 13.005 45.415l-79.565 160.153h276.121c35.328 0 64 31.283 64 69.94V825.548h31.898c17.664 0 32 15.616 32 34.97 0 19.25-14.336 34.918-32 34.918z m-95.898-664.064c0-19.303-14.336-34.919-31.948-34.919H159.846c-17.664 0-32 15.616-32 34.919V825.446h31.642l0.358 0.103H863.13l0.307-0.103h31.641v-594.022z"  horiz-adv-x="1024" />

    
    <glyph glyph-name="chengzuren" unicode="&#58905;" d="M1024.012 19.445c-0.006 155.74-89.433 288.857-215.897 343.146 61.247 44.142 101.614 119.342 101.614 204.748 0 116.592-75.2 214.173-176.152 239.55a4.045 4.045 0 0 1-2.667-0.24c-1.143 0.117-2.263 0.381-3.43 0.381-21.566 0-39.047-18.864-39.047-42.125 0-21.004 14.298-38.274 32.951-41.451 3.318-1.46 7.674-2.568 7.844-2.638 58.463-21.397 100.524-81.004 100.524-151.29 0-78.372-52.337-143.494-121.364-157.124-0.094-0.006-0.176-0.2-0.276-0.252-22.962-1.565-41.193-21.948-41.193-47.096 0-25.536 18.765-46.223 42.225-47.232 0.158-0.088 0.305-0.363 0.469-0.37C848.44 302.2 946.848 174.663 946.848 19.44c0-22.98 17.276-41.61 38.585-41.61 20.787 0 37.611 17.774 38.426 39.98 0.024 0.217 0.153 0.387 0.153 0.61 0 0.076-0.03 0.152-0.03 0.252 0.012 0.252 0.03 0.504 0.03 0.756v0.018z m-462.348 336.24c73.148 52.854 121.317 142.72 121.317 244.798 0 162.663-122.267 294.532-273.1 294.532-150.827 0-273.105-131.869-273.105-294.532 0-102.089 48.186-191.944 121.317-244.797C106.903 290.616 0.006 131.376 0.006-54.894c0-10.487 0.55-20.816 1.295-31.086h0.07c0-22.675 17.042-41.035 38.07-41.035 21.01 0 38.057 18.366 38.057 41.035 0 1.278-0.24 2.485-0.352 3.734-0.733 9.04-1.36 18.09-1.36 27.353 0 198.99 149.578 360.305 334.101 360.305 184.529 0 334.108-161.315 334.108-360.305 0-9.602-0.628-19.046-1.413-28.414-0.006-0.487-0.13-0.932-0.13-1.424 0-0.147 0.048-0.294 0.048-0.434-0.024-0.27-0.018-0.551-0.047-0.815h0.123c0.627-22.065 17.323-39.792 37.934-39.792 20.623 0 37.312 17.715 37.946 39.792h0.082c0.72 10.276 1.23 20.611 1.23 31.075-0.011 186.282-106.902 345.521-258.104 410.59z m-151.783 33.233c-108.344 0-196.17 94.72-196.17 211.565 0 116.839 87.826 211.565 196.17 211.565s196.171-94.72 196.171-211.565-87.826-211.565-196.17-211.565z"  horiz-adv-x="1024" />

    
    </font>
</defs>
</svg>
